<?xml version="1.0" encoding="UTF-8" standalone="no"?>
<!DOCTYPE svg PUBLIC "-//W3C//DTD SVG 1.1//EN"
 "http://www.w3.org/Graphics/SVG/1.1/DTD/svg11.dtd">
<!-- Generated by graphviz version 12.2.1 (20241206.2353)
 -->
<!-- Title: G Pages: 1 -->
<svg width="4929pt" height="252pt"
 viewBox="0.00 0.00 4928.70 252.00" xmlns="http://www.w3.org/2000/svg" xmlns:xlink="http://www.w3.org/1999/xlink">
<g id="graph0" class="graph" transform="scale(1 1) rotate(0) translate(4 248)">
<title>G</title>
<polygon fill="white" stroke="none" points="-4,4 -4,-248 4924.7,-248 4924.7,4 -4,4"/>
<g id="clust1" class="cluster">
<title>cluster_segment_12</title>
<polygon fill="none" stroke="black" points="4775.43,-61 4775.43,-159 4912.7,-159 4912.7,-61 4775.43,-61"/>
<text text-anchor="middle" x="4844.06" y="-141.7" font-family="Times,serif" font-size="14.00">Segment 12</text>
</g>
<g id="clust2" class="cluster">
<title>cluster_segment_154</title>
<polygon fill="none" stroke="black" points="4606.49,-61 4606.49,-159 4755.43,-159 4755.43,-61 4606.49,-61"/>
<text text-anchor="middle" x="4680.96" y="-141.7" font-family="Times,serif" font-size="14.00">Segment 154</text>
</g>
<g id="clust3" class="cluster">
<title>cluster_segment_352</title>
<polygon fill="none" stroke="black" points="4437.56,-61 4437.56,-159 4586.49,-159 4586.49,-61 4437.56,-61"/>
<text text-anchor="middle" x="4512.02" y="-141.7" font-family="Times,serif" font-size="14.00">Segment 352</text>
</g>
<g id="clust4" class="cluster">
<title>cluster_segment_554</title>
<polygon fill="none" stroke="black" points="4268.62,-114 4268.62,-212 4417.56,-212 4417.56,-114 4268.62,-114"/>
<text text-anchor="middle" x="4343.09" y="-194.7" font-family="Times,serif" font-size="14.00">Segment 554</text>
</g>
<g id="clust5" class="cluster">
<title>cluster_segment_760</title>
<polygon fill="none" stroke="black" points="4268.62,-8 4268.62,-106 4417.56,-106 4417.56,-8 4268.62,-8"/>
<text text-anchor="middle" x="4343.09" y="-88.7" font-family="Times,serif" font-size="14.00">Segment 760</text>
</g>
<g id="clust6" class="cluster">
<title>cluster_segment_963</title>
<polygon fill="none" stroke="black" points="4118.66,-72 4118.66,-149 4248.62,-149 4248.62,-72 4118.66,-72"/>
<text text-anchor="middle" x="4183.64" y="-131.7" font-family="Times,serif" font-size="14.00">Segment 963</text>
</g>
<g id="clust7" class="cluster">
<title>cluster_segment_1159</title>
<polygon fill="none" stroke="black" points="3949.72,-61 3949.72,-159 4098.66,-159 4098.66,-61 3949.72,-61"/>
<text text-anchor="middle" x="4024.19" y="-141.7" font-family="Times,serif" font-size="14.00">Segment 1159</text>
</g>
<g id="clust8" class="cluster">
<title>cluster_segment_1362</title>
<polygon fill="none" stroke="black" points="3780.79,-61 3780.79,-159 3929.72,-159 3929.72,-61 3780.79,-61"/>
<text text-anchor="middle" x="3855.25" y="-141.7" font-family="Times,serif" font-size="14.00">Segment 1362</text>
</g>
<g id="clust9" class="cluster">
<title>cluster_segment_1569</title>
<polygon fill="none" stroke="black" points="3611.85,-61 3611.85,-159 3760.79,-159 3760.79,-61 3611.85,-61"/>
<text text-anchor="middle" x="3686.32" y="-141.7" font-family="Times,serif" font-size="14.00">Segment 1569</text>
</g>
<g id="clust10" class="cluster">
<title>cluster_segment_1772</title>
<polygon fill="none" stroke="black" points="3442.91,-61 3442.91,-159 3591.85,-159 3591.85,-61 3442.91,-61"/>
<text text-anchor="middle" x="3517.38" y="-141.7" font-family="Times,serif" font-size="14.00">Segment 1772</text>
</g>
<g id="clust11" class="cluster">
<title>cluster_segment_1983</title>
<polygon fill="none" stroke="black" points="3273.98,-114 3273.98,-212 3422.91,-212 3422.91,-114 3273.98,-114"/>
<text text-anchor="middle" x="3348.45" y="-194.7" font-family="Times,serif" font-size="14.00">Segment 1983</text>
</g>
<g id="clust12" class="cluster">
<title>cluster_segment_2190</title>
<polygon fill="none" stroke="black" points="3273.98,-8 3273.98,-106 3422.91,-106 3422.91,-8 3273.98,-8"/>
<text text-anchor="middle" x="3348.45" y="-88.7" font-family="Times,serif" font-size="14.00">Segment 2190</text>
</g>
<g id="clust13" class="cluster">
<title>cluster_segment_2397</title>
<polygon fill="none" stroke="black" points="3135.27,-43 3135.27,-120 3253.98,-120 3253.98,-43 3135.27,-43"/>
<text text-anchor="middle" x="3194.63" y="-102.7" font-family="Times,serif" font-size="14.00">Segment 2397</text>
</g>
<g id="clust14" class="cluster">
<title>cluster_segment_2597</title>
<polygon fill="none" stroke="black" points="2966.34,-138 2966.34,-236 3115.27,-236 3115.27,-138 2966.34,-138"/>
<text text-anchor="middle" x="3040.81" y="-218.7" font-family="Times,serif" font-size="14.00">Segment 2597</text>
</g>
<g id="clust15" class="cluster">
<title>cluster_segment_2800</title>
<polygon fill="none" stroke="black" points="2797.4,-138 2797.4,-236 2946.34,-236 2946.34,-138 2797.4,-138"/>
<text text-anchor="middle" x="2871.87" y="-218.7" font-family="Times,serif" font-size="14.00">Segment 2800</text>
</g>
<g id="clust16" class="cluster">
<title>cluster_segment_3003</title>
<polygon fill="none" stroke="black" points="2966.34,-32 2966.34,-130 3115.27,-130 3115.27,-32 2966.34,-32"/>
<text text-anchor="middle" x="3040.81" y="-112.7" font-family="Times,serif" font-size="14.00">Segment 3003</text>
</g>
<g id="clust17" class="cluster">
<title>cluster_segment_3210</title>
<polygon fill="none" stroke="black" points="2804.84,-53 2804.84,-130 2938.9,-130 2938.9,-53 2804.84,-53"/>
<text text-anchor="middle" x="2871.87" y="-112.7" font-family="Times,serif" font-size="14.00">Segment 3210</text>
</g>
<g id="clust18" class="cluster">
<title>cluster_segment_3406</title>
<polygon fill="none" stroke="black" points="2653.58,-101 2653.58,-178 2777.4,-178 2777.4,-101 2653.58,-101"/>
<text text-anchor="middle" x="2715.49" y="-160.7" font-family="Times,serif" font-size="14.00">Segment 3406</text>
</g>
<g id="clust19" class="cluster">
<title>cluster_segment_3606</title>
<polygon fill="none" stroke="black" points="2484.65,-90 2484.65,-188 2633.58,-188 2633.58,-90 2484.65,-90"/>
<text text-anchor="middle" x="2559.11" y="-170.7" font-family="Times,serif" font-size="14.00">Segment 3606</text>
</g>
<g id="clust20" class="cluster">
<title>cluster_segment_3809</title>
<polygon fill="none" stroke="black" points="2315.71,-90 2315.71,-188 2464.65,-188 2464.65,-90 2315.71,-90"/>
<text text-anchor="middle" x="2390.18" y="-170.7" font-family="Times,serif" font-size="14.00">Segment 3809</text>
</g>
<g id="clust21" class="cluster">
<title>cluster_segment_4016</title>
<polygon fill="none" stroke="black" points="2146.77,-114 2146.77,-212 2295.71,-212 2295.71,-114 2146.77,-114"/>
<text text-anchor="middle" x="2221.24" y="-194.7" font-family="Times,serif" font-size="14.00">Segment 4016</text>
</g>
<g id="clust22" class="cluster">
<title>cluster_segment_4223</title>
<polygon fill="none" stroke="black" points="2146.77,-8 2146.77,-106 2295.71,-106 2295.71,-8 2146.77,-8"/>
<text text-anchor="middle" x="2221.24" y="-88.7" font-family="Times,serif" font-size="14.00">Segment 4223</text>
</g>
<g id="clust23" class="cluster">
<title>cluster_segment_4426</title>
<polygon fill="none" stroke="black" points="2008.07,-72 2008.07,-149 2126.77,-149 2126.77,-72 2008.07,-72"/>
<text text-anchor="middle" x="2067.42" y="-131.7" font-family="Times,serif" font-size="14.00">Segment 4426</text>
</g>
<g id="clust24" class="cluster">
<title>cluster_segment_4622</title>
<polygon fill="none" stroke="black" points="1839.13,-61 1839.13,-159 1988.07,-159 1988.07,-61 1839.13,-61"/>
<text text-anchor="middle" x="1913.6" y="-141.7" font-family="Times,serif" font-size="14.00">Segment 4622</text>
</g>
<g id="clust25" class="cluster">
<title>cluster_segment_4825</title>
<polygon fill="none" stroke="black" points="1163.39,-61 1163.39,-159 1819.13,-159 1819.13,-61 1163.39,-61"/>
<text text-anchor="middle" x="1491.26" y="-141.7" font-family="Times,serif" font-size="14.00">Segment 4825</text>
</g>
<g id="clust26" class="cluster">
<title>cluster_segment_5466</title>
<polygon fill="none" stroke="black" points="994.45,-61 994.45,-159 1143.39,-159 1143.39,-61 994.45,-61"/>
<text text-anchor="middle" x="1068.92" y="-141.7" font-family="Times,serif" font-size="14.00">Segment 5466</text>
</g>
<g id="clust27" class="cluster">
<title>cluster_segment_5673</title>
<polygon fill="none" stroke="black" points="825.52,-61 825.52,-159 974.45,-159 974.45,-61 825.52,-61"/>
<text text-anchor="middle" x="899.99" y="-141.7" font-family="Times,serif" font-size="14.00">Segment 5673</text>
</g>
<g id="clust28" class="cluster">
<title>cluster_segment_5876</title>
<polygon fill="none" stroke="black" points="656.58,-61 656.58,-159 805.52,-159 805.52,-61 656.58,-61"/>
<text text-anchor="middle" x="731.05" y="-141.7" font-family="Times,serif" font-size="14.00">Segment 5876</text>
</g>
<g id="clust29" class="cluster">
<title>cluster_segment_6079</title>
<polygon fill="none" stroke="black" points="487.65,-61 487.65,-159 636.58,-159 636.58,-61 487.65,-61"/>
<text text-anchor="middle" x="562.11" y="-141.7" font-family="Times,serif" font-size="14.00">Segment 6079</text>
</g>
<g id="clust30" class="cluster">
<title>cluster_segment_6283</title>
<polygon fill="none" stroke="black" points="318.71,-61 318.71,-159 467.65,-159 467.65,-61 318.71,-61"/>
<text text-anchor="middle" x="393.18" y="-141.7" font-family="Times,serif" font-size="14.00">Segment 6283</text>
</g>
<g id="clust31" class="cluster">
<title>cluster_segment_6494</title>
<polygon fill="none" stroke="black" points="149.77,-114 149.77,-212 298.71,-212 298.71,-114 149.77,-114"/>
<text text-anchor="middle" x="224.24" y="-194.7" font-family="Times,serif" font-size="14.00">Segment 6494</text>
</g>
<g id="clust32" class="cluster">
<title>cluster_segment_6701</title>
<polygon fill="none" stroke="black" points="149.77,-8 149.77,-106 298.71,-106 298.71,-8 149.77,-8"/>
<text text-anchor="middle" x="224.24" y="-88.7" font-family="Times,serif" font-size="14.00">Segment 6701</text>
</g>
<g id="clust33" class="cluster">
<title>cluster_segment_6908</title>
<polygon fill="none" stroke="black" points="8,-72 8,-149 129.77,-149 129.77,-72 8,-72"/>
<text text-anchor="middle" x="68.89" y="-131.7" font-family="Times,serif" font-size="14.00">Segment 6908</text>
</g>
<!-- command_GHenAmGbUs9LDLFqUgw9U8PYwRcj6n9MfyBtY7NJTPCT -->
<g id="node1" class="node">
<title>command_GHenAmGbUs9LDLFqUgw9U8PYwRcj6n9MfyBtY7NJTPCT</title>
<ellipse fill="lightblue" stroke="lightblue" cx="4844.06" cy="-98" rx="60.63" ry="28.99"/>
<text text-anchor="middle" x="4844.06" y="-101.2" font-family="Times,serif" font-size="14.00">GHenAmGb</text>
<text text-anchor="middle" x="4844.06" y="-84.7" font-family="Times,serif" font-size="14.00">(Init)</text>
</g>
<!-- command_FdRwR279p7LSMzPNkjkQ9n7t5gP3TN9dqA7ghJXeRkTJ -->
<g id="node2" class="node">
<title>command_FdRwR279p7LSMzPNkjkQ9n7t5gP3TN9dqA7ghJXeRkTJ</title>
<ellipse fill="none" stroke="black" cx="4680.96" cy="-98" rx="66.47" ry="28.99"/>
<text text-anchor="middle" x="4680.96" y="-101.2" font-family="Times,serif" font-size="14.00">FdRwR279</text>
<text text-anchor="middle" x="4680.96" y="-84.7" font-family="Times,serif" font-size="14.00">(SetLedColor)</text>
</g>
<!-- command_FdRwR279p7LSMzPNkjkQ9n7t5gP3TN9dqA7ghJXeRkTJ&#45;&gt;command_GHenAmGbUs9LDLFqUgw9U8PYwRcj6n9MfyBtY7NJTPCT -->
<g id="edge1" class="edge">
<title>command_FdRwR279p7LSMzPNkjkQ9n7t5gP3TN9dqA7ghJXeRkTJ&#45;&gt;command_GHenAmGbUs9LDLFqUgw9U8PYwRcj6n9MfyBtY7NJTPCT</title>
<path fill="none" stroke="black" d="M4747.49,-98C4755.48,-98 4763.68,-98 4771.75,-98"/>
<polygon fill="black" stroke="black" points="4771.53,-101.5 4781.53,-98 4771.53,-94.5 4771.53,-101.5"/>
</g>
<!-- command_FWwkuBKinvCE5eKb2pGSUs2zbFNdnS8YfC5bAQddCqsw -->
<g id="node3" class="node">
<title>command_FWwkuBKinvCE5eKb2pGSUs2zbFNdnS8YfC5bAQddCqsw</title>
<ellipse fill="none" stroke="black" cx="4512.02" cy="-98" rx="66.47" ry="28.99"/>
<text text-anchor="middle" x="4512.02" y="-101.2" font-family="Times,serif" font-size="14.00">FWwkuBKi</text>
<text text-anchor="middle" x="4512.02" y="-84.7" font-family="Times,serif" font-size="14.00">(SetLedColor)</text>
</g>
<!-- command_FWwkuBKinvCE5eKb2pGSUs2zbFNdnS8YfC5bAQddCqsw&#45;&gt;command_FdRwR279p7LSMzPNkjkQ9n7t5gP3TN9dqA7ghJXeRkTJ -->
<g id="edge2" class="edge">
<title>command_FWwkuBKinvCE5eKb2pGSUs2zbFNdnS8YfC5bAQddCqsw&#45;&gt;command_FdRwR279p7LSMzPNkjkQ9n7t5gP3TN9dqA7ghJXeRkTJ</title>
<path fill="none" stroke="black" d="M4578.52,-98C4586.47,-98 4594.64,-98 4602.74,-98"/>
<polygon fill="black" stroke="black" points="4602.59,-101.5 4612.59,-98 4602.59,-94.5 4602.59,-101.5"/>
</g>
<!-- command_7ZYxqkXa2dY241MH8etuvTFz7Tfq7c2UA8C968z2Bqhm -->
<g id="node4" class="node">
<title>command_7ZYxqkXa2dY241MH8etuvTFz7Tfq7c2UA8C968z2Bqhm</title>
<ellipse fill="none" stroke="black" cx="4343.09" cy="-151" rx="66.47" ry="28.99"/>
<text text-anchor="middle" x="4343.09" y="-154.2" font-family="Times,serif" font-size="14.00">7ZYxqkXa</text>
<text text-anchor="middle" x="4343.09" y="-137.7" font-family="Times,serif" font-size="14.00">(SetLedColor)</text>
</g>
<!-- command_7ZYxqkXa2dY241MH8etuvTFz7Tfq7c2UA8C968z2Bqhm&#45;&gt;command_FWwkuBKinvCE5eKb2pGSUs2zbFNdnS8YfC5bAQddCqsw -->
<g id="edge3" class="edge">
<title>command_7ZYxqkXa2dY241MH8etuvTFz7Tfq7c2UA8C968z2Bqhm&#45;&gt;command_FWwkuBKinvCE5eKb2pGSUs2zbFNdnS8YfC5bAQddCqsw</title>
<path fill="none" stroke="black" d="M4397.37,-134.08C4413.1,-129.09 4430.49,-123.57 4446.83,-118.38"/>
<polygon fill="black" stroke="black" points="4447.48,-121.85 4455.95,-115.49 4445.36,-115.18 4447.48,-121.85"/>
</g>
<!-- command_Cx2hyDe8cpHnfTmxCGPoRTCVE8MzgzjyXXTTLHsRCGYc -->
<g id="node5" class="node">
<title>command_Cx2hyDe8cpHnfTmxCGPoRTCVE8MzgzjyXXTTLHsRCGYc</title>
<ellipse fill="none" stroke="black" cx="4343.09" cy="-45" rx="66.47" ry="28.99"/>
<text text-anchor="middle" x="4343.09" y="-48.2" font-family="Times,serif" font-size="14.00">Cx2hyDe8</text>
<text text-anchor="middle" x="4343.09" y="-31.7" font-family="Times,serif" font-size="14.00">(SetLedColor)</text>
</g>
<!-- command_Cx2hyDe8cpHnfTmxCGPoRTCVE8MzgzjyXXTTLHsRCGYc&#45;&gt;command_FWwkuBKinvCE5eKb2pGSUs2zbFNdnS8YfC5bAQddCqsw -->
<g id="edge4" class="edge">
<title>command_Cx2hyDe8cpHnfTmxCGPoRTCVE8MzgzjyXXTTLHsRCGYc&#45;&gt;command_FWwkuBKinvCE5eKb2pGSUs2zbFNdnS8YfC5bAQddCqsw</title>
<path fill="none" stroke="black" d="M4397.37,-61.92C4413.1,-66.91 4430.49,-72.43 4446.83,-77.62"/>
<polygon fill="black" stroke="black" points="4445.36,-80.82 4455.95,-80.51 4447.48,-74.15 4445.36,-80.82"/>
</g>
<!-- command_EDvTjLMwENgip1AY2AFSgB3fqrgUnjqySVq9GEFzzcqf -->
<g id="node6" class="node">
<title>command_EDvTjLMwENgip1AY2AFSgB3fqrgUnjqySVq9GEFzzcqf</title>
<ellipse fill="lightgreen" stroke="lightgreen" cx="4183.64" cy="-98" rx="56.98" ry="18"/>
<text text-anchor="middle" x="4183.64" y="-92.95" font-family="Times,serif" font-size="14.00">EDvTjLMw</text>
</g>
<!-- command_EDvTjLMwENgip1AY2AFSgB3fqrgUnjqySVq9GEFzzcqf&#45;&gt;command_7ZYxqkXa2dY241MH8etuvTFz7Tfq7c2UA8C968z2Bqhm -->
<g id="edge5" class="edge">
<title>command_EDvTjLMwENgip1AY2AFSgB3fqrgUnjqySVq9GEFzzcqf&#45;&gt;command_7ZYxqkXa2dY241MH8etuvTFz7Tfq7c2UA8C968z2Bqhm</title>
<path fill="none" stroke="black" d="M4223.56,-111.1C4240.23,-116.71 4260.13,-123.41 4278.83,-129.7"/>
<polygon fill="black" stroke="black" points="4277.63,-133 4288.22,-132.87 4279.86,-126.36 4277.63,-133"/>
</g>
<!-- command_EDvTjLMwENgip1AY2AFSgB3fqrgUnjqySVq9GEFzzcqf&#45;&gt;command_Cx2hyDe8cpHnfTmxCGPoRTCVE8MzgzjyXXTTLHsRCGYc -->
<g id="edge6" class="edge">
<title>command_EDvTjLMwENgip1AY2AFSgB3fqrgUnjqySVq9GEFzzcqf&#45;&gt;command_Cx2hyDe8cpHnfTmxCGPoRTCVE8MzgzjyXXTTLHsRCGYc</title>
<path fill="none" stroke="black" d="M4223.56,-84.9C4240.23,-79.29 4260.13,-72.59 4278.83,-66.3"/>
<polygon fill="black" stroke="black" points="4279.86,-69.64 4288.22,-63.13 4277.63,-63 4279.86,-69.64"/>
</g>
<!-- command_DLLN3ZADPUXbhSXTTFmVGTEBAgNVuz1hH8UGnfM3CsoZ -->
<g id="node7" class="node">
<title>command_DLLN3ZADPUXbhSXTTFmVGTEBAgNVuz1hH8UGnfM3CsoZ</title>
<ellipse fill="none" stroke="black" cx="4024.19" cy="-98" rx="66.47" ry="28.99"/>
<text text-anchor="middle" x="4024.19" y="-101.2" font-family="Times,serif" font-size="14.00">DLLN3ZAD</text>
<text text-anchor="middle" x="4024.19" y="-84.7" font-family="Times,serif" font-size="14.00">(SetLedColor)</text>
</g>
<!-- command_DLLN3ZADPUXbhSXTTFmVGTEBAgNVuz1hH8UGnfM3CsoZ&#45;&gt;command_EDvTjLMwENgip1AY2AFSgB3fqrgUnjqySVq9GEFzzcqf -->
<g id="edge7" class="edge">
<title>command_DLLN3ZADPUXbhSXTTFmVGTEBAgNVuz1hH8UGnfM3CsoZ&#45;&gt;command_EDvTjLMwENgip1AY2AFSgB3fqrgUnjqySVq9GEFzzcqf</title>
<path fill="none" stroke="black" d="M4091.05,-98C4098.98,-98 4107.08,-98 4115.03,-98"/>
<polygon fill="black" stroke="black" points="4115.02,-101.5 4125.02,-98 4115.02,-94.5 4115.02,-101.5"/>
</g>
<!-- command_GuheL9ZKYQ2u4TL2fXM62FxxxbSLWYqMEHV96rsecpp9 -->
<g id="node8" class="node">
<title>command_GuheL9ZKYQ2u4TL2fXM62FxxxbSLWYqMEHV96rsecpp9</title>
<ellipse fill="none" stroke="black" cx="3855.25" cy="-98" rx="66.47" ry="28.99"/>
<text text-anchor="middle" x="3855.25" y="-101.2" font-family="Times,serif" font-size="14.00">GuheL9ZK</text>
<text text-anchor="middle" x="3855.25" y="-84.7" font-family="Times,serif" font-size="14.00">(SetLedColor)</text>
</g>
<!-- command_GuheL9ZKYQ2u4TL2fXM62FxxxbSLWYqMEHV96rsecpp9&#45;&gt;command_DLLN3ZADPUXbhSXTTFmVGTEBAgNVuz1hH8UGnfM3CsoZ -->
<g id="edge8" class="edge">
<title>command_GuheL9ZKYQ2u4TL2fXM62FxxxbSLWYqMEHV96rsecpp9&#45;&gt;command_DLLN3ZADPUXbhSXTTFmVGTEBAgNVuz1hH8UGnfM3CsoZ</title>
<path fill="none" stroke="black" d="M3921.75,-98C3929.7,-98 3937.87,-98 3945.97,-98"/>
<polygon fill="black" stroke="black" points="3945.82,-101.5 3955.82,-98 3945.82,-94.5 3945.82,-101.5"/>
</g>
<!-- command_7gpoQhKRk7TsKyxiSnyyWGcjJxTh7PVrqDQkMCdRPv99 -->
<g id="node9" class="node">
<title>command_7gpoQhKRk7TsKyxiSnyyWGcjJxTh7PVrqDQkMCdRPv99</title>
<ellipse fill="none" stroke="black" cx="3686.32" cy="-98" rx="66.47" ry="28.99"/>
<text text-anchor="middle" x="3686.32" y="-101.2" font-family="Times,serif" font-size="14.00">7gpoQhKR</text>
<text text-anchor="middle" x="3686.32" y="-84.7" font-family="Times,serif" font-size="14.00">(SetLedColor)</text>
</g>
<!-- command_7gpoQhKRk7TsKyxiSnyyWGcjJxTh7PVrqDQkMCdRPv99&#45;&gt;command_GuheL9ZKYQ2u4TL2fXM62FxxxbSLWYqMEHV96rsecpp9 -->
<g id="edge9" class="edge">
<title>command_7gpoQhKRk7TsKyxiSnyyWGcjJxTh7PVrqDQkMCdRPv99&#45;&gt;command_GuheL9ZKYQ2u4TL2fXM62FxxxbSLWYqMEHV96rsecpp9</title>
<path fill="none" stroke="black" d="M3752.82,-98C3760.76,-98 3768.94,-98 3777.03,-98"/>
<polygon fill="black" stroke="black" points="3776.88,-101.5 3786.88,-98 3776.88,-94.5 3776.88,-101.5"/>
</g>
<!-- command_9vBosswZ6Va5MB5F7DftY9KcsjA4LQ4AYTiizk6Dr72c -->
<g id="node10" class="node">
<title>command_9vBosswZ6Va5MB5F7DftY9KcsjA4LQ4AYTiizk6Dr72c</title>
<ellipse fill="none" stroke="black" cx="3517.38" cy="-98" rx="66.47" ry="28.99"/>
<text text-anchor="middle" x="3517.38" y="-101.2" font-family="Times,serif" font-size="14.00">9vBosswZ</text>
<text text-anchor="middle" x="3517.38" y="-84.7" font-family="Times,serif" font-size="14.00">(SetLedColor)</text>
</g>
<!-- command_9vBosswZ6Va5MB5F7DftY9KcsjA4LQ4AYTiizk6Dr72c&#45;&gt;command_7gpoQhKRk7TsKyxiSnyyWGcjJxTh7PVrqDQkMCdRPv99 -->
<g id="edge10" class="edge">
<title>command_9vBosswZ6Va5MB5F7DftY9KcsjA4LQ4AYTiizk6Dr72c&#45;&gt;command_7gpoQhKRk7TsKyxiSnyyWGcjJxTh7PVrqDQkMCdRPv99</title>
<path fill="none" stroke="black" d="M3583.88,-98C3591.83,-98 3600,-98 3608.1,-98"/>
<polygon fill="black" stroke="black" points="3607.95,-101.5 3617.95,-98 3607.95,-94.5 3607.95,-101.5"/>
</g>
<!-- command_Hno3sbuwJVt3vJDcB7pxx9rZUj5vYtxpQxStQkQazVM6 -->
<g id="node11" class="node">
<title>command_Hno3sbuwJVt3vJDcB7pxx9rZUj5vYtxpQxStQkQazVM6</title>
<ellipse fill="none" stroke="black" cx="3348.45" cy="-151" rx="66.47" ry="28.99"/>
<text text-anchor="middle" x="3348.45" y="-154.2" font-family="Times,serif" font-size="14.00">Hno3sbuw</text>
<text text-anchor="middle" x="3348.45" y="-137.7" font-family="Times,serif" font-size="14.00">(SetLedColor)</text>
</g>
<!-- command_Hno3sbuwJVt3vJDcB7pxx9rZUj5vYtxpQxStQkQazVM6&#45;&gt;command_9vBosswZ6Va5MB5F7DftY9KcsjA4LQ4AYTiizk6Dr72c -->
<g id="edge11" class="edge">
<title>command_Hno3sbuwJVt3vJDcB7pxx9rZUj5vYtxpQxStQkQazVM6&#45;&gt;command_9vBosswZ6Va5MB5F7DftY9KcsjA4LQ4AYTiizk6Dr72c</title>
<path fill="none" stroke="black" d="M3402.72,-134.08C3418.46,-129.09 3435.84,-123.57 3452.19,-118.38"/>
<polygon fill="black" stroke="black" points="3452.84,-121.85 3461.31,-115.49 3450.72,-115.18 3452.84,-121.85"/>
</g>
<!-- command_2Q6QTYrPCnQjxMJKv7BZrmUGu1aCw6ErTTHmAcktKgwC -->
<g id="node12" class="node">
<title>command_2Q6QTYrPCnQjxMJKv7BZrmUGu1aCw6ErTTHmAcktKgwC</title>
<ellipse fill="none" stroke="black" cx="3348.45" cy="-45" rx="66.47" ry="28.99"/>
<text text-anchor="middle" x="3348.45" y="-48.2" font-family="Times,serif" font-size="14.00">2Q6QTYrP</text>
<text text-anchor="middle" x="3348.45" y="-31.7" font-family="Times,serif" font-size="14.00">(SetLedColor)</text>
</g>
<!-- command_2Q6QTYrPCnQjxMJKv7BZrmUGu1aCw6ErTTHmAcktKgwC&#45;&gt;command_9vBosswZ6Va5MB5F7DftY9KcsjA4LQ4AYTiizk6Dr72c -->
<g id="edge12" class="edge">
<title>command_2Q6QTYrPCnQjxMJKv7BZrmUGu1aCw6ErTTHmAcktKgwC&#45;&gt;command_9vBosswZ6Va5MB5F7DftY9KcsjA4LQ4AYTiizk6Dr72c</title>
<path fill="none" stroke="black" d="M3402.72,-61.92C3418.46,-66.91 3435.84,-72.43 3452.19,-77.62"/>
<polygon fill="black" stroke="black" points="3450.72,-80.82 3461.31,-80.51 3452.84,-74.15 3450.72,-80.82"/>
</g>
<!-- command_VEy7v5fYbirbfPGY1wj4Y3xgKkuY8UA58s3F1gCGyp2 -->
<g id="node13" class="node">
<title>command_VEy7v5fYbirbfPGY1wj4Y3xgKkuY8UA58s3F1gCGyp2</title>
<ellipse fill="lightgreen" stroke="lightgreen" cx="3194.63" cy="-69" rx="51.35" ry="18"/>
<text text-anchor="middle" x="3194.63" y="-63.95" font-family="Times,serif" font-size="14.00">VEy7v5fY</text>
</g>
<!-- command_VEy7v5fYbirbfPGY1wj4Y3xgKkuY8UA58s3F1gCGyp2&#45;&gt;command_Hno3sbuwJVt3vJDcB7pxx9rZUj5vYtxpQxStQkQazVM6 -->
<g id="edge14" class="edge">
<title>command_VEy7v5fYbirbfPGY1wj4Y3xgKkuY8UA58s3F1gCGyp2&#45;&gt;command_Hno3sbuwJVt3vJDcB7pxx9rZUj5vYtxpQxStQkQazVM6</title>
<path fill="none" stroke="black" d="M3223.83,-84.23C3243.94,-95.09 3271.56,-110.01 3295.59,-122.99"/>
<polygon fill="black" stroke="black" points="3293.84,-126.03 3304.31,-127.7 3297.17,-119.87 3293.84,-126.03"/>
</g>
<!-- command_VEy7v5fYbirbfPGY1wj4Y3xgKkuY8UA58s3F1gCGyp2&#45;&gt;command_2Q6QTYrPCnQjxMJKv7BZrmUGu1aCw6ErTTHmAcktKgwC -->
<g id="edge13" class="edge">
<title>command_VEy7v5fYbirbfPGY1wj4Y3xgKkuY8UA58s3F1gCGyp2&#45;&gt;command_2Q6QTYrPCnQjxMJKv7BZrmUGu1aCw6ErTTHmAcktKgwC</title>
<path fill="none" stroke="black" d="M3242,-61.67C3252.16,-60.06 3263.16,-58.32 3274.09,-56.6"/>
<polygon fill="black" stroke="black" points="3274.58,-60.06 3283.92,-55.04 3273.49,-53.15 3274.58,-60.06"/>
</g>
<!-- command_UfzHEHAHe3MevzuktBZF9AWtN3fvnMkkaBfYykGp7H3 -->
<g id="node14" class="node">
<title>command_UfzHEHAHe3MevzuktBZF9AWtN3fvnMkkaBfYykGp7H3</title>
<ellipse fill="none" stroke="black" cx="3040.81" cy="-175" rx="66.47" ry="28.99"/>
<text text-anchor="middle" x="3040.81" y="-178.2" font-family="Times,serif" font-size="14.00">UfzHEHAH</text>
<text text-anchor="middle" x="3040.81" y="-161.7" font-family="Times,serif" font-size="14.00">(SetLedColor)</text>
</g>
<!-- command_UfzHEHAHe3MevzuktBZF9AWtN3fvnMkkaBfYykGp7H3&#45;&gt;command_VEy7v5fYbirbfPGY1wj4Y3xgKkuY8UA58s3F1gCGyp2 -->
<g id="edge15" class="edge">
<title>command_UfzHEHAHe3MevzuktBZF9AWtN3fvnMkkaBfYykGp7H3&#45;&gt;command_VEy7v5fYbirbfPGY1wj4Y3xgKkuY8UA58s3F1gCGyp2</title>
<path fill="none" stroke="black" d="M3084.57,-152.88C3094.85,-147.09 3105.64,-140.61 3115.27,-134 3133.14,-121.75 3151.86,-106.34 3166.52,-93.59"/>
<polygon fill="black" stroke="black" points="3168.75,-96.29 3173.94,-87.05 3164.13,-91.03 3168.75,-96.29"/>
</g>
<!-- command_Hr9SUtyytw9swnMfj8Ch7CBgbNnaWRc2n6q4UKRXaYgi -->
<g id="node15" class="node">
<title>command_Hr9SUtyytw9swnMfj8Ch7CBgbNnaWRc2n6q4UKRXaYgi</title>
<ellipse fill="none" stroke="black" cx="2871.87" cy="-175" rx="66.47" ry="28.99"/>
<text text-anchor="middle" x="2871.87" y="-178.2" font-family="Times,serif" font-size="14.00">Hr9SUtyy</text>
<text text-anchor="middle" x="2871.87" y="-161.7" font-family="Times,serif" font-size="14.00">(SetLedColor)</text>
</g>
<!-- command_Hr9SUtyytw9swnMfj8Ch7CBgbNnaWRc2n6q4UKRXaYgi&#45;&gt;command_UfzHEHAHe3MevzuktBZF9AWtN3fvnMkkaBfYykGp7H3 -->
<g id="edge16" class="edge">
<title>command_Hr9SUtyytw9swnMfj8Ch7CBgbNnaWRc2n6q4UKRXaYgi&#45;&gt;command_UfzHEHAHe3MevzuktBZF9AWtN3fvnMkkaBfYykGp7H3</title>
<path fill="none" stroke="black" d="M2938.37,-175C2946.32,-175 2954.49,-175 2962.59,-175"/>
<polygon fill="black" stroke="black" points="2962.44,-178.5 2972.44,-175 2962.44,-171.5 2962.44,-178.5"/>
</g>
<!-- command_DLsyVX2ihJFunHLTaddcYUhyixJDDf9g71KMixAcEjXP -->
<g id="node16" class="node">
<title>command_DLsyVX2ihJFunHLTaddcYUhyixJDDf9g71KMixAcEjXP</title>
<ellipse fill="none" stroke="black" cx="3040.81" cy="-69" rx="66.47" ry="28.99"/>
<text text-anchor="middle" x="3040.81" y="-72.2" font-family="Times,serif" font-size="14.00">DLsyVX2i</text>
<text text-anchor="middle" x="3040.81" y="-55.7" font-family="Times,serif" font-size="14.00">(SetLedColor)</text>
</g>
<!-- command_DLsyVX2ihJFunHLTaddcYUhyixJDDf9g71KMixAcEjXP&#45;&gt;command_VEy7v5fYbirbfPGY1wj4Y3xgKkuY8UA58s3F1gCGyp2 -->
<g id="edge17" class="edge">
<title>command_DLsyVX2ihJFunHLTaddcYUhyixJDDf9g71KMixAcEjXP&#45;&gt;command_VEy7v5fYbirbfPGY1wj4Y3xgKkuY8UA58s3F1gCGyp2</title>
<path fill="none" stroke="black" d="M3107.51,-69C3115.48,-69 3123.6,-69 3131.52,-69"/>
<polygon fill="black" stroke="black" points="3131.41,-72.5 3141.41,-69 3131.41,-65.5 3131.41,-72.5"/>
</g>
<!-- command_HhoGEDKAxxgZ3uLgdbJ8hhfhkqqy1f1HJJs7jvMWPk4U -->
<g id="node17" class="node">
<title>command_HhoGEDKAxxgZ3uLgdbJ8hhfhkqqy1f1HJJs7jvMWPk4U</title>
<ellipse fill="lightgreen" stroke="lightgreen" cx="2871.87" cy="-79" rx="59.03" ry="18"/>
<text text-anchor="middle" x="2871.87" y="-73.95" font-family="Times,serif" font-size="14.00">HhoGEDKA</text>
</g>
<!-- command_HhoGEDKAxxgZ3uLgdbJ8hhfhkqqy1f1HJJs7jvMWPk4U&#45;&gt;command_UfzHEHAHe3MevzuktBZF9AWtN3fvnMkkaBfYykGp7H3 -->
<g id="edge18" class="edge">
<title>command_HhoGEDKAxxgZ3uLgdbJ8hhfhkqqy1f1HJJs7jvMWPk4U&#45;&gt;command_UfzHEHAHe3MevzuktBZF9AWtN3fvnMkkaBfYykGp7H3</title>
<path fill="none" stroke="black" d="M2899.77,-95.05C2918.4,-106.11 2943.8,-121.08 2966.34,-134 2973.48,-138.09 2981.04,-142.37 2988.49,-146.56"/>
<polygon fill="black" stroke="black" points="2986.77,-149.61 2997.2,-151.44 2990.19,-143.5 2986.77,-149.61"/>
</g>
<!-- command_HhoGEDKAxxgZ3uLgdbJ8hhfhkqqy1f1HJJs7jvMWPk4U&#45;&gt;command_DLsyVX2ihJFunHLTaddcYUhyixJDDf9g71KMixAcEjXP -->
<g id="edge19" class="edge">
<title>command_HhoGEDKAxxgZ3uLgdbJ8hhfhkqqy1f1HJJs7jvMWPk4U&#45;&gt;command_DLsyVX2ihJFunHLTaddcYUhyixJDDf9g71KMixAcEjXP</title>
<path fill="none" stroke="black" d="M2930.32,-75.56C2940.89,-74.93 2952.08,-74.26 2963.11,-73.59"/>
<polygon fill="black" stroke="black" points="2963.23,-77.09 2973,-73 2962.81,-70.11 2963.23,-77.09"/>
</g>
<!-- command_5qkK1TLDRwBEzhPZWj6QB7p8efEJPLJvN6Gjj9CRmmyK -->
<g id="node18" class="node">
<title>command_5qkK1TLDRwBEzhPZWj6QB7p8efEJPLJvN6Gjj9CRmmyK</title>
<ellipse fill="lightgreen" stroke="lightgreen" cx="2715.49" cy="-127" rx="53.91" ry="18"/>
<text text-anchor="middle" x="2715.49" y="-121.95" font-family="Times,serif" font-size="14.00">5qkK1TLD</text>
</g>
<!-- command_5qkK1TLDRwBEzhPZWj6QB7p8efEJPLJvN6Gjj9CRmmyK&#45;&gt;command_Hr9SUtyytw9swnMfj8Ch7CBgbNnaWRc2n6q4UKRXaYgi -->
<g id="edge21" class="edge">
<title>command_5qkK1TLDRwBEzhPZWj6QB7p8efEJPLJvN6Gjj9CRmmyK&#45;&gt;command_Hr9SUtyytw9swnMfj8Ch7CBgbNnaWRc2n6q4UKRXaYgi</title>
<path fill="none" stroke="black" d="M2755.85,-139.24C2771.24,-144.02 2789.29,-149.63 2806.47,-154.98"/>
<polygon fill="black" stroke="black" points="2804.99,-158.18 2815.58,-157.81 2807.07,-151.5 2804.99,-158.18"/>
</g>
<!-- command_5qkK1TLDRwBEzhPZWj6QB7p8efEJPLJvN6Gjj9CRmmyK&#45;&gt;command_HhoGEDKAxxgZ3uLgdbJ8hhfhkqqy1f1HJJs7jvMWPk4U -->
<g id="edge20" class="edge">
<title>command_5qkK1TLDRwBEzhPZWj6QB7p8efEJPLJvN6Gjj9CRmmyK&#45;&gt;command_HhoGEDKAxxgZ3uLgdbJ8hhfhkqqy1f1HJJs7jvMWPk4U</title>
<path fill="none" stroke="black" d="M2755.85,-114.76C2774.93,-108.83 2798.11,-101.62 2818.65,-95.24"/>
<polygon fill="black" stroke="black" points="2819.47,-98.65 2827.98,-92.34 2817.39,-91.96 2819.47,-98.65"/>
</g>
<!-- command_7fnBRvkgDCZWMDV1NYJ1aLNPiC3eXoFuAqTJKh3Htb2j -->
<g id="node19" class="node">
<title>command_7fnBRvkgDCZWMDV1NYJ1aLNPiC3eXoFuAqTJKh3Htb2j</title>
<ellipse fill="none" stroke="black" cx="2559.11" cy="-127" rx="66.47" ry="28.99"/>
<text text-anchor="middle" x="2559.11" y="-130.2" font-family="Times,serif" font-size="14.00">7fnBRvkg</text>
<text text-anchor="middle" x="2559.11" y="-113.7" font-family="Times,serif" font-size="14.00">(SetLedColor)</text>
</g>
<!-- command_7fnBRvkgDCZWMDV1NYJ1aLNPiC3eXoFuAqTJKh3Htb2j&#45;&gt;command_5qkK1TLDRwBEzhPZWj6QB7p8efEJPLJvN6Gjj9CRmmyK -->
<g id="edge22" class="edge">
<title>command_7fnBRvkgDCZWMDV1NYJ1aLNPiC3eXoFuAqTJKh3Htb2j&#45;&gt;command_5qkK1TLDRwBEzhPZWj6QB7p8efEJPLJvN6Gjj9CRmmyK</title>
<path fill="none" stroke="black" d="M2626.03,-127C2633.96,-127 2642.05,-127 2649.96,-127"/>
<polygon fill="black" stroke="black" points="2649.86,-130.5 2659.86,-127 2649.86,-123.5 2649.86,-130.5"/>
</g>
<!-- command_GUgiaepHRCycG5xGhVeadAqtuYC5TT9DbA8aBWFeikfz -->
<g id="node20" class="node">
<title>command_GUgiaepHRCycG5xGhVeadAqtuYC5TT9DbA8aBWFeikfz</title>
<ellipse fill="none" stroke="black" cx="2390.18" cy="-127" rx="66.47" ry="28.99"/>
<text text-anchor="middle" x="2390.18" y="-130.2" font-family="Times,serif" font-size="14.00">GUgiaepH</text>
<text text-anchor="middle" x="2390.18" y="-113.7" font-family="Times,serif" font-size="14.00">(SetLedColor)</text>
</g>
<!-- command_GUgiaepHRCycG5xGhVeadAqtuYC5TT9DbA8aBWFeikfz&#45;&gt;command_7fnBRvkgDCZWMDV1NYJ1aLNPiC3eXoFuAqTJKh3Htb2j -->
<g id="edge23" class="edge">
<title>command_GUgiaepHRCycG5xGhVeadAqtuYC5TT9DbA8aBWFeikfz&#45;&gt;command_7fnBRvkgDCZWMDV1NYJ1aLNPiC3eXoFuAqTJKh3Htb2j</title>
<path fill="none" stroke="black" d="M2456.68,-127C2464.62,-127 2472.8,-127 2480.89,-127"/>
<polygon fill="black" stroke="black" points="2480.74,-130.5 2490.74,-127 2480.74,-123.5 2480.74,-130.5"/>
</g>
<!-- command_Ee3D1cvQoawn1AQmxSNwXoFqXrsff4Nh2xKREAYhtFPr -->
<g id="node21" class="node">
<title>command_Ee3D1cvQoawn1AQmxSNwXoFqXrsff4Nh2xKREAYhtFPr</title>
<ellipse fill="none" stroke="black" cx="2221.24" cy="-151" rx="66.47" ry="28.99"/>
<text text-anchor="middle" x="2221.24" y="-154.2" font-family="Times,serif" font-size="14.00">Ee3D1cvQ</text>
<text text-anchor="middle" x="2221.24" y="-137.7" font-family="Times,serif" font-size="14.00">(SetLedColor)</text>
</g>
<!-- command_Ee3D1cvQoawn1AQmxSNwXoFqXrsff4Nh2xKREAYhtFPr&#45;&gt;command_GUgiaepHRCycG5xGhVeadAqtuYC5TT9DbA8aBWFeikfz -->
<g id="edge24" class="edge">
<title>command_Ee3D1cvQoawn1AQmxSNwXoFqXrsff4Nh2xKREAYhtFPr&#45;&gt;command_GUgiaepHRCycG5xGhVeadAqtuYC5TT9DbA8aBWFeikfz</title>
<path fill="none" stroke="black" d="M2284.88,-142C2294.76,-140.57 2305.06,-139.09 2315.17,-137.64"/>
<polygon fill="black" stroke="black" points="2315.57,-141.12 2324.97,-136.23 2314.57,-134.19 2315.57,-141.12"/>
</g>
<!-- command_FGoJEFSjrZX9iLVEtVYNc41GCThvTaXUuTKThXTBbqVd -->
<g id="node22" class="node">
<title>command_FGoJEFSjrZX9iLVEtVYNc41GCThvTaXUuTKThXTBbqVd</title>
<ellipse fill="none" stroke="black" cx="2221.24" cy="-45" rx="66.47" ry="28.99"/>
<text text-anchor="middle" x="2221.24" y="-48.2" font-family="Times,serif" font-size="14.00">FGoJEFSj</text>
<text text-anchor="middle" x="2221.24" y="-31.7" font-family="Times,serif" font-size="14.00">(SetLedColor)</text>
</g>
<!-- command_FGoJEFSjrZX9iLVEtVYNc41GCThvTaXUuTKThXTBbqVd&#45;&gt;command_GUgiaepHRCycG5xGhVeadAqtuYC5TT9DbA8aBWFeikfz -->
<g id="edge25" class="edge">
<title>command_FGoJEFSjrZX9iLVEtVYNc41GCThvTaXUuTKThXTBbqVd&#45;&gt;command_GUgiaepHRCycG5xGhVeadAqtuYC5TT9DbA8aBWFeikfz</title>
<path fill="none" stroke="black" d="M2266.1,-66.54C2287.12,-76.87 2312.49,-89.33 2334.73,-100.26"/>
<polygon fill="black" stroke="black" points="2333.15,-103.38 2343.67,-104.65 2336.24,-97.1 2333.15,-103.38"/>
</g>
<!-- command_EitFGXEEL3H4eWSAWS7k8fAeVNJsMRbV9beXsJeGChy3 -->
<g id="node23" class="node">
<title>command_EitFGXEEL3H4eWSAWS7k8fAeVNJsMRbV9beXsJeGChy3</title>
<ellipse fill="lightgreen" stroke="lightgreen" cx="2067.42" cy="-98" rx="51.35" ry="18"/>
<text text-anchor="middle" x="2067.42" y="-92.95" font-family="Times,serif" font-size="14.00">EitFGXEE</text>
</g>
<!-- command_EitFGXEEL3H4eWSAWS7k8fAeVNJsMRbV9beXsJeGChy3&#45;&gt;command_Ee3D1cvQoawn1AQmxSNwXoFqXrsff4Nh2xKREAYhtFPr -->
<g id="edge26" class="edge">
<title>command_EitFGXEEL3H4eWSAWS7k8fAeVNJsMRbV9beXsJeGChy3&#45;&gt;command_Ee3D1cvQoawn1AQmxSNwXoFqXrsff4Nh2xKREAYhtFPr</title>
<path fill="none" stroke="black" d="M2104.79,-110.69C2120.63,-116.22 2139.65,-122.87 2157.65,-129.15"/>
<polygon fill="black" stroke="black" points="2156.36,-132.41 2166.95,-132.4 2158.67,-125.8 2156.36,-132.41"/>
</g>
<!-- command_EitFGXEEL3H4eWSAWS7k8fAeVNJsMRbV9beXsJeGChy3&#45;&gt;command_FGoJEFSjrZX9iLVEtVYNc41GCThvTaXUuTKThXTBbqVd -->
<g id="edge27" class="edge">
<title>command_EitFGXEEL3H4eWSAWS7k8fAeVNJsMRbV9beXsJeGChy3&#45;&gt;command_FGoJEFSjrZX9iLVEtVYNc41GCThvTaXUuTKThXTBbqVd</title>
<path fill="none" stroke="black" d="M2104.79,-85.31C2120.63,-79.78 2139.65,-73.13 2157.65,-66.85"/>
<polygon fill="black" stroke="black" points="2158.67,-70.2 2166.95,-63.6 2156.36,-63.59 2158.67,-70.2"/>
</g>
<!-- command_CnqtMYogFBrM6saYwNnXUTGLbjjdrwJCX1aSp8F6UnhF -->
<g id="node24" class="node">
<title>command_CnqtMYogFBrM6saYwNnXUTGLbjjdrwJCX1aSp8F6UnhF</title>
<ellipse fill="none" stroke="black" cx="1913.6" cy="-98" rx="66.47" ry="28.99"/>
<text text-anchor="middle" x="1913.6" y="-101.2" font-family="Times,serif" font-size="14.00">CnqtMYog</text>
<text text-anchor="middle" x="1913.6" y="-84.7" font-family="Times,serif" font-size="14.00">(SetLedColor)</text>
</g>
<!-- command_CnqtMYogFBrM6saYwNnXUTGLbjjdrwJCX1aSp8F6UnhF&#45;&gt;command_EitFGXEEL3H4eWSAWS7k8fAeVNJsMRbV9beXsJeGChy3 -->
<g id="edge28" class="edge">
<title>command_CnqtMYogFBrM6saYwNnXUTGLbjjdrwJCX1aSp8F6UnhF&#45;&gt;command_EitFGXEEL3H4eWSAWS7k8fAeVNJsMRbV9beXsJeGChy3</title>
<path fill="none" stroke="black" d="M1980.31,-98C1988.28,-98 1996.4,-98 2004.31,-98"/>
<polygon fill="black" stroke="black" points="2004.21,-101.5 2014.21,-98 2004.21,-94.5 2004.21,-101.5"/>
</g>
<!-- command_7qGgD7GkSHZnrSYmDky1qWDsmTZrzUN72ENbcTw3Ktmn -->
<g id="node25" class="node">
<title>command_7qGgD7GkSHZnrSYmDky1qWDsmTZrzUN72ENbcTw3Ktmn</title>
<ellipse fill="none" stroke="black" cx="1744.67" cy="-98" rx="66.47" ry="28.99"/>
<text text-anchor="middle" x="1744.67" y="-101.2" font-family="Times,serif" font-size="14.00">7qGgD7Gk</text>
<text text-anchor="middle" x="1744.67" y="-84.7" font-family="Times,serif" font-size="14.00">(SetLedColor)</text>
</g>
<!-- command_7qGgD7GkSHZnrSYmDky1qWDsmTZrzUN72ENbcTw3Ktmn&#45;&gt;command_CnqtMYogFBrM6saYwNnXUTGLbjjdrwJCX1aSp8F6UnhF -->
<g id="edge29" class="edge">
<title>command_7qGgD7GkSHZnrSYmDky1qWDsmTZrzUN72ENbcTw3Ktmn&#45;&gt;command_CnqtMYogFBrM6saYwNnXUTGLbjjdrwJCX1aSp8F6UnhF</title>
<path fill="none" stroke="black" d="M1811.16,-98C1819.11,-98 1827.29,-98 1835.38,-98"/>
<polygon fill="black" stroke="black" points="1835.23,-101.5 1845.23,-98 1835.23,-94.5 1835.23,-101.5"/>
</g>
<!-- command_DDwChsg7796aZuh5sLmzvfi6CRgCLhpBih1Gs8W4uDpw -->
<g id="node26" class="node">
<title>command_DDwChsg7796aZuh5sLmzvfi6CRgCLhpBih1Gs8W4uDpw</title>
<ellipse fill="none" stroke="black" cx="1575.73" cy="-98" rx="66.47" ry="28.99"/>
<text text-anchor="middle" x="1575.73" y="-101.2" font-family="Times,serif" font-size="14.00">DDwChsg7</text>
<text text-anchor="middle" x="1575.73" y="-84.7" font-family="Times,serif" font-size="14.00">(SetLedColor)</text>
</g>
<!-- command_DDwChsg7796aZuh5sLmzvfi6CRgCLhpBih1Gs8W4uDpw&#45;&gt;command_7qGgD7GkSHZnrSYmDky1qWDsmTZrzUN72ENbcTw3Ktmn -->
<g id="edge30" class="edge">
<title>command_DDwChsg7796aZuh5sLmzvfi6CRgCLhpBih1Gs8W4uDpw&#45;&gt;command_7qGgD7GkSHZnrSYmDky1qWDsmTZrzUN72ENbcTw3Ktmn</title>
<path fill="none" stroke="black" d="M1642.23,-98C1650.18,-98 1658.35,-98 1666.45,-98"/>
<polygon fill="black" stroke="black" points="1666.3,-101.5 1676.3,-98 1666.3,-94.5 1666.3,-101.5"/>
</g>
<!-- command_AR6eh1wkwDAV8NTyjXHMcn9GHNr2aYcqauWwmAZj7CRA -->
<g id="node27" class="node">
<title>command_AR6eh1wkwDAV8NTyjXHMcn9GHNr2aYcqauWwmAZj7CRA</title>
<ellipse fill="none" stroke="black" cx="1406.79" cy="-98" rx="66.47" ry="28.99"/>
<text text-anchor="middle" x="1406.79" y="-101.2" font-family="Times,serif" font-size="14.00">AR6eh1wk</text>
<text text-anchor="middle" x="1406.79" y="-84.7" font-family="Times,serif" font-size="14.00">(SetLedColor)</text>
</g>
<!-- command_AR6eh1wkwDAV8NTyjXHMcn9GHNr2aYcqauWwmAZj7CRA&#45;&gt;command_DDwChsg7796aZuh5sLmzvfi6CRgCLhpBih1Gs8W4uDpw -->
<g id="edge31" class="edge">
<title>command_AR6eh1wkwDAV8NTyjXHMcn9GHNr2aYcqauWwmAZj7CRA&#45;&gt;command_DDwChsg7796aZuh5sLmzvfi6CRgCLhpBih1Gs8W4uDpw</title>
<path fill="none" stroke="black" d="M1473.29,-98C1481.24,-98 1489.41,-98 1497.51,-98"/>
<polygon fill="black" stroke="black" points="1497.36,-101.5 1507.36,-98 1497.36,-94.5 1497.36,-101.5"/>
</g>
<!-- command_AqbcNpXK5Cfnh5jCn3bhrVMvMy2q7Jg8uEzEEBveNpxE -->
<g id="node28" class="node">
<title>command_AqbcNpXK5Cfnh5jCn3bhrVMvMy2q7Jg8uEzEEBveNpxE</title>
<ellipse fill="none" stroke="black" cx="1237.86" cy="-98" rx="66.47" ry="28.99"/>
<text text-anchor="middle" x="1237.86" y="-101.2" font-family="Times,serif" font-size="14.00">AqbcNpXK</text>
<text text-anchor="middle" x="1237.86" y="-84.7" font-family="Times,serif" font-size="14.00">(SetLedColor)</text>
</g>
<!-- command_AqbcNpXK5Cfnh5jCn3bhrVMvMy2q7Jg8uEzEEBveNpxE&#45;&gt;command_AR6eh1wkwDAV8NTyjXHMcn9GHNr2aYcqauWwmAZj7CRA -->
<g id="edge32" class="edge">
<title>command_AqbcNpXK5Cfnh5jCn3bhrVMvMy2q7Jg8uEzEEBveNpxE&#45;&gt;command_AR6eh1wkwDAV8NTyjXHMcn9GHNr2aYcqauWwmAZj7CRA</title>
<path fill="none" stroke="black" d="M1304.36,-98C1312.3,-98 1320.48,-98 1328.57,-98"/>
<polygon fill="black" stroke="black" points="1328.42,-101.5 1338.42,-98 1328.42,-94.5 1328.42,-101.5"/>
</g>
<!-- command_37eFaiZhW2jat7CDxYKDF3sE5UUqX7eBRjzcMZgXKvGD -->
<g id="node29" class="node">
<title>command_37eFaiZhW2jat7CDxYKDF3sE5UUqX7eBRjzcMZgXKvGD</title>
<ellipse fill="none" stroke="black" cx="1068.92" cy="-98" rx="66.47" ry="28.99"/>
<text text-anchor="middle" x="1068.92" y="-101.2" font-family="Times,serif" font-size="14.00">37eFaiZh</text>
<text text-anchor="middle" x="1068.92" y="-84.7" font-family="Times,serif" font-size="14.00">(SetLedColor)</text>
</g>
<!-- command_37eFaiZhW2jat7CDxYKDF3sE5UUqX7eBRjzcMZgXKvGD&#45;&gt;command_AqbcNpXK5Cfnh5jCn3bhrVMvMy2q7Jg8uEzEEBveNpxE -->
<g id="edge33" class="edge">
<title>command_37eFaiZhW2jat7CDxYKDF3sE5UUqX7eBRjzcMZgXKvGD&#45;&gt;command_AqbcNpXK5Cfnh5jCn3bhrVMvMy2q7Jg8uEzEEBveNpxE</title>
<path fill="none" stroke="black" d="M1135.42,-98C1143.37,-98 1151.54,-98 1159.64,-98"/>
<polygon fill="black" stroke="black" points="1159.49,-101.5 1169.49,-98 1159.49,-94.5 1159.49,-101.5"/>
</g>
<!-- command_4NEaF4b8xLzY4e6WjHyC6cft46fg57uiEX2wHhfDunwz -->
<g id="node30" class="node">
<title>command_4NEaF4b8xLzY4e6WjHyC6cft46fg57uiEX2wHhfDunwz</title>
<ellipse fill="none" stroke="black" cx="899.99" cy="-98" rx="66.47" ry="28.99"/>
<text text-anchor="middle" x="899.99" y="-101.2" font-family="Times,serif" font-size="14.00">4NEaF4b8</text>
<text text-anchor="middle" x="899.99" y="-84.7" font-family="Times,serif" font-size="14.00">(SetLedColor)</text>
</g>
<!-- command_4NEaF4b8xLzY4e6WjHyC6cft46fg57uiEX2wHhfDunwz&#45;&gt;command_37eFaiZhW2jat7CDxYKDF3sE5UUqX7eBRjzcMZgXKvGD -->
<g id="edge34" class="edge">
<title>command_4NEaF4b8xLzY4e6WjHyC6cft46fg57uiEX2wHhfDunwz&#45;&gt;command_37eFaiZhW2jat7CDxYKDF3sE5UUqX7eBRjzcMZgXKvGD</title>
<path fill="none" stroke="black" d="M966.48,-98C974.43,-98 982.61,-98 990.7,-98"/>
<polygon fill="black" stroke="black" points="990.55,-101.5 1000.55,-98 990.55,-94.5 990.55,-101.5"/>
</g>
<!-- command_HNDGFLkNXRtQSV9KVZjvju8k81g4pbr4jd49CHtnHNKM -->
<g id="node31" class="node">
<title>command_HNDGFLkNXRtQSV9KVZjvju8k81g4pbr4jd49CHtnHNKM</title>
<ellipse fill="none" stroke="black" cx="731.05" cy="-98" rx="66.47" ry="28.99"/>
<text text-anchor="middle" x="731.05" y="-101.2" font-family="Times,serif" font-size="14.00">HNDGFLkN</text>
<text text-anchor="middle" x="731.05" y="-84.7" font-family="Times,serif" font-size="14.00">(SetLedColor)</text>
</g>
<!-- command_HNDGFLkNXRtQSV9KVZjvju8k81g4pbr4jd49CHtnHNKM&#45;&gt;command_4NEaF4b8xLzY4e6WjHyC6cft46fg57uiEX2wHhfDunwz -->
<g id="edge35" class="edge">
<title>command_HNDGFLkNXRtQSV9KVZjvju8k81g4pbr4jd49CHtnHNKM&#45;&gt;command_4NEaF4b8xLzY4e6WjHyC6cft46fg57uiEX2wHhfDunwz</title>
<path fill="none" stroke="black" d="M797.55,-98C805.5,-98 813.67,-98 821.77,-98"/>
<polygon fill="black" stroke="black" points="821.61,-101.5 831.61,-98 821.61,-94.5 821.61,-101.5"/>
</g>
<!-- command_4xurCDgm7CRVmv4C6zFRorsnZnmp1scMRJLmQeEFDMFM -->
<g id="node32" class="node">
<title>command_4xurCDgm7CRVmv4C6zFRorsnZnmp1scMRJLmQeEFDMFM</title>
<ellipse fill="none" stroke="black" cx="562.11" cy="-98" rx="66.47" ry="28.99"/>
<text text-anchor="middle" x="562.11" y="-101.2" font-family="Times,serif" font-size="14.00">4xurCDgm</text>
<text text-anchor="middle" x="562.11" y="-84.7" font-family="Times,serif" font-size="14.00">(SetLedColor)</text>
</g>
<!-- command_4xurCDgm7CRVmv4C6zFRorsnZnmp1scMRJLmQeEFDMFM&#45;&gt;command_HNDGFLkNXRtQSV9KVZjvju8k81g4pbr4jd49CHtnHNKM -->
<g id="edge36" class="edge">
<title>command_4xurCDgm7CRVmv4C6zFRorsnZnmp1scMRJLmQeEFDMFM&#45;&gt;command_HNDGFLkNXRtQSV9KVZjvju8k81g4pbr4jd49CHtnHNKM</title>
<path fill="none" stroke="black" d="M628.61,-98C636.56,-98 644.73,-98 652.83,-98"/>
<polygon fill="black" stroke="black" points="652.68,-101.5 662.68,-98 652.68,-94.5 652.68,-101.5"/>
</g>
<!-- command_BTuyb8CN8vTxJf1jWrQVWfCxBHqtPGr2HWSEgJuUsdc1 -->
<g id="node33" class="node">
<title>command_BTuyb8CN8vTxJf1jWrQVWfCxBHqtPGr2HWSEgJuUsdc1</title>
<ellipse fill="none" stroke="black" cx="393.18" cy="-98" rx="66.47" ry="28.99"/>
<text text-anchor="middle" x="393.18" y="-101.2" font-family="Times,serif" font-size="14.00">BTuyb8CN</text>
<text text-anchor="middle" x="393.18" y="-84.7" font-family="Times,serif" font-size="14.00">(SetLedColor)</text>
</g>
<!-- command_BTuyb8CN8vTxJf1jWrQVWfCxBHqtPGr2HWSEgJuUsdc1&#45;&gt;command_4xurCDgm7CRVmv4C6zFRorsnZnmp1scMRJLmQeEFDMFM -->
<g id="edge37" class="edge">
<title>command_BTuyb8CN8vTxJf1jWrQVWfCxBHqtPGr2HWSEgJuUsdc1&#45;&gt;command_4xurCDgm7CRVmv4C6zFRorsnZnmp1scMRJLmQeEFDMFM</title>
<path fill="none" stroke="black" d="M459.68,-98C467.62,-98 475.8,-98 483.89,-98"/>
<polygon fill="black" stroke="black" points="483.74,-101.5 493.74,-98 483.74,-94.5 483.74,-101.5"/>
</g>
<!-- command_4MGaiSNhdCugcLfJ9885MFxGhMwDmgdrxLtWD5DSKMvw -->
<g id="node34" class="node">
<title>command_4MGaiSNhdCugcLfJ9885MFxGhMwDmgdrxLtWD5DSKMvw</title>
<ellipse fill="none" stroke="black" cx="224.24" cy="-151" rx="66.47" ry="28.99"/>
<text text-anchor="middle" x="224.24" y="-154.2" font-family="Times,serif" font-size="14.00">4MGaiSNh</text>
<text text-anchor="middle" x="224.24" y="-137.7" font-family="Times,serif" font-size="14.00">(SetLedColor)</text>
</g>
<!-- command_4MGaiSNhdCugcLfJ9885MFxGhMwDmgdrxLtWD5DSKMvw&#45;&gt;command_BTuyb8CN8vTxJf1jWrQVWfCxBHqtPGr2HWSEgJuUsdc1 -->
<g id="edge38" class="edge">
<title>command_4MGaiSNhdCugcLfJ9885MFxGhMwDmgdrxLtWD5DSKMvw&#45;&gt;command_BTuyb8CN8vTxJf1jWrQVWfCxBHqtPGr2HWSEgJuUsdc1</title>
<path fill="none" stroke="black" d="M278.52,-134.08C294.25,-129.09 311.64,-123.57 327.98,-118.38"/>
<polygon fill="black" stroke="black" points="328.63,-121.85 337.1,-115.49 326.51,-115.18 328.63,-121.85"/>
</g>
<!-- command_DxpzyRUJ8zXPjfq3ngPE5XinDhc8pDJD4STJYAPfQXvp -->
<g id="node35" class="node">
<title>command_DxpzyRUJ8zXPjfq3ngPE5XinDhc8pDJD4STJYAPfQXvp</title>
<ellipse fill="none" stroke="black" cx="224.24" cy="-45" rx="66.47" ry="28.99"/>
<text text-anchor="middle" x="224.24" y="-48.2" font-family="Times,serif" font-size="14.00">DxpzyRUJ</text>
<text text-anchor="middle" x="224.24" y="-31.7" font-family="Times,serif" font-size="14.00">(SetLedColor)</text>
</g>
<!-- command_DxpzyRUJ8zXPjfq3ngPE5XinDhc8pDJD4STJYAPfQXvp&#45;&gt;command_BTuyb8CN8vTxJf1jWrQVWfCxBHqtPGr2HWSEgJuUsdc1 -->
<g id="edge39" class="edge">
<title>command_DxpzyRUJ8zXPjfq3ngPE5XinDhc8pDJD4STJYAPfQXvp&#45;&gt;command_BTuyb8CN8vTxJf1jWrQVWfCxBHqtPGr2HWSEgJuUsdc1</title>
<path fill="none" stroke="black" d="M278.52,-61.92C294.25,-66.91 311.64,-72.43 327.98,-77.62"/>
<polygon fill="black" stroke="black" points="326.51,-80.82 337.1,-80.51 328.63,-74.15 326.51,-80.82"/>
</g>
<!-- command_2xKxvkJMZasFUvrnpF62fzBdB6vVVvGDL2QYDWFHzBTk -->
<g id="node36" class="node">
<title>command_2xKxvkJMZasFUvrnpF62fzBdB6vVVvGDL2QYDWFHzBTk</title>
<ellipse fill="lightgreen" stroke="lightgreen" cx="68.89" cy="-98" rx="52.89" ry="18"/>
<text text-anchor="middle" x="68.89" y="-92.95" font-family="Times,serif" font-size="14.00">2xKxvkJM</text>
</g>
<!-- command_2xKxvkJMZasFUvrnpF62fzBdB6vVVvGDL2QYDWFHzBTk&#45;&gt;command_4MGaiSNhdCugcLfJ9885MFxGhMwDmgdrxLtWD5DSKMvw -->
<g id="edge40" class="edge">
<title>command_2xKxvkJMZasFUvrnpF62fzBdB6vVVvGDL2QYDWFHzBTk&#45;&gt;command_4MGaiSNhdCugcLfJ9885MFxGhMwDmgdrxLtWD5DSKMvw</title>
<path fill="none" stroke="black" d="M107.01,-110.83C123.09,-116.39 142.36,-123.05 160.55,-129.33"/>
<polygon fill="black" stroke="black" points="159.37,-132.63 169.97,-132.59 161.66,-126.01 159.37,-132.63"/>
</g>
<!-- command_2xKxvkJMZasFUvrnpF62fzBdB6vVVvGDL2QYDWFHzBTk&#45;&gt;command_DxpzyRUJ8zXPjfq3ngPE5XinDhc8pDJD4STJYAPfQXvp -->
<g id="edge41" class="edge">
<title>command_2xKxvkJMZasFUvrnpF62fzBdB6vVVvGDL2QYDWFHzBTk&#45;&gt;command_DxpzyRUJ8zXPjfq3ngPE5XinDhc8pDJD4STJYAPfQXvp</title>
<path fill="none" stroke="black" d="M107.01,-85.17C123.09,-79.61 142.36,-72.95 160.55,-66.67"/>
<polygon fill="black" stroke="black" points="161.66,-69.99 169.97,-63.41 159.37,-63.37 161.66,-69.99"/>
</g>
</g>
</svg>
