<?xml version="1.0" encoding="UTF-8" standalone="no"?>
<!DOCTYPE svg PUBLIC "-//W3C//DTD SVG 1.1//EN"
 "http://www.w3.org/Graphics/SVG/1.1/DTD/svg11.dtd">
<!-- Generated by graphviz version 12.2.1 (20241206.2353)
 -->
<!-- Title: G Pages: 1 -->
<svg width="3098pt" height="361pt"
 viewBox="0.00 0.00 3097.56 361.00" xmlns="http://www.w3.org/2000/svg" xmlns:xlink="http://www.w3.org/1999/xlink">
<g id="graph0" class="graph" transform="scale(1 1) rotate(0) translate(4 357)">
<title>G</title>
<polygon fill="white" stroke="none" points="-4,4 -4,-357 3093.56,-357 3093.56,4 -4,4"/>
<g id="clust1" class="cluster">
<title>cluster_segment_12</title>
<polygon fill="none" stroke="black" points="2944.29,-247 2944.29,-345 3081.56,-345 3081.56,-247 2944.29,-247"/>
<text text-anchor="middle" x="3012.93" y="-327.7" font-family="Times,serif" font-size="14.00">Segment 12</text>
</g>
<g id="clust2" class="cluster">
<title>cluster_segment_154</title>
<polygon fill="none" stroke="black" points="2268.55,-247 2268.55,-345 2924.29,-345 2924.29,-247 2268.55,-247"/>
<text text-anchor="middle" x="2596.42" y="-327.7" font-family="Times,serif" font-size="14.00">Segment 154</text>
</g>
<g id="clust3" class="cluster">
<title>cluster_segment_804</title>
<polygon fill="none" stroke="black" points="2268.55,-141 2268.55,-239 2417.49,-239 2417.49,-141 2268.55,-141"/>
<text text-anchor="middle" x="2343.02" y="-221.7" font-family="Times,serif" font-size="14.00">Segment 804</text>
</g>
<g id="clust4" class="cluster">
<title>cluster_segment_1008</title>
<polygon fill="none" stroke="black" points="1608.71,-194 1608.71,-292 2248.55,-292 2248.55,-194 1608.71,-194"/>
<text text-anchor="middle" x="1928.63" y="-274.7" font-family="Times,serif" font-size="14.00">Segment 1008</text>
</g>
<g id="clust5" class="cluster">
<title>cluster_segment_1661</title>
<polygon fill="none" stroke="black" points="1608.71,-88 1608.71,-186 1757.64,-186 1757.64,-88 1608.71,-88"/>
<text text-anchor="middle" x="1683.18" y="-168.7" font-family="Times,serif" font-size="14.00">Segment 1661</text>
</g>
<g id="clust6" class="cluster">
<title>cluster_segment_1869</title>
<polygon fill="none" stroke="black" points="1462.84,-125 1462.84,-202 1588.71,-202 1588.71,-125 1462.84,-125"/>
<text text-anchor="middle" x="1525.77" y="-184.7" font-family="Times,serif" font-size="14.00">Segment 1869</text>
</g>
<g id="clust7" class="cluster">
<title>cluster_segment_2074</title>
<polygon fill="none" stroke="black" points="1293.9,-167 1293.9,-265 1442.84,-265 1442.84,-167 1293.9,-167"/>
<text text-anchor="middle" x="1368.37" y="-247.7" font-family="Times,serif" font-size="14.00">Segment 2074</text>
</g>
<g id="clust8" class="cluster">
<title>cluster_segment_2283</title>
<polygon fill="none" stroke="black" points="1293.9,-61 1293.9,-159 1442.84,-159 1442.84,-61 1293.9,-61"/>
<text text-anchor="middle" x="1368.37" y="-141.7" font-family="Times,serif" font-size="14.00">Segment 2283</text>
</g>
<g id="clust9" class="cluster">
<title>cluster_segment_2491</title>
<polygon fill="none" stroke="black" points="1155.2,-125 1155.2,-202 1273.9,-202 1273.9,-125 1155.2,-125"/>
<text text-anchor="middle" x="1214.55" y="-184.7" font-family="Times,serif" font-size="14.00">Segment 2491</text>
</g>
<g id="clust10" class="cluster">
<title>cluster_segment_2692</title>
<polygon fill="none" stroke="black" points="310.52,-114 310.52,-212 1135.2,-212 1135.2,-114 310.52,-114"/>
<text text-anchor="middle" x="722.86" y="-194.7" font-family="Times,serif" font-size="14.00">Segment 2692</text>
</g>
<g id="clust11" class="cluster">
<title>cluster_segment_3498</title>
<polygon fill="none" stroke="black" points="310.52,-8 310.52,-106 459.46,-106 459.46,-8 310.52,-8"/>
<text text-anchor="middle" x="384.99" y="-88.7" font-family="Times,serif" font-size="14.00">Segment 3498</text>
</g>
<g id="clust12" class="cluster">
<title>cluster_segment_3706</title>
<polygon fill="none" stroke="black" points="176.94,-72 176.94,-149 290.52,-149 290.52,-72 176.94,-72"/>
<text text-anchor="middle" x="233.73" y="-131.7" font-family="Times,serif" font-size="14.00">Segment 3706</text>
</g>
<g id="clust13" class="cluster">
<title>cluster_segment_3907</title>
<polygon fill="none" stroke="black" points="8,-61 8,-159 156.94,-159 156.94,-61 8,-61"/>
<text text-anchor="middle" x="82.47" y="-141.7" font-family="Times,serif" font-size="14.00">Segment 3907</text>
</g>
<!-- command_GHenAmGbUs9LDLFqUgw9U8PYwRcj6n9MfyBtY7NJTPCT -->
<g id="node1" class="node">
<title>command_GHenAmGbUs9LDLFqUgw9U8PYwRcj6n9MfyBtY7NJTPCT</title>
<ellipse fill="lightblue" stroke="lightblue" cx="3012.93" cy="-284" rx="60.63" ry="28.99"/>
<text text-anchor="middle" x="3012.93" y="-287.2" font-family="Times,serif" font-size="14.00">GHenAmGb</text>
<text text-anchor="middle" x="3012.93" y="-270.7" font-family="Times,serif" font-size="14.00">(Init)</text>
</g>
<!-- command_FdRwR279p7LSMzPNkjkQ9n7t5gP3TN9dqA7ghJXeRkTJ -->
<g id="node2" class="node">
<title>command_FdRwR279p7LSMzPNkjkQ9n7t5gP3TN9dqA7ghJXeRkTJ</title>
<ellipse fill="none" stroke="black" cx="2849.83" cy="-284" rx="66.47" ry="28.99"/>
<text text-anchor="middle" x="2849.83" y="-287.2" font-family="Times,serif" font-size="14.00">FdRwR279</text>
<text text-anchor="middle" x="2849.83" y="-270.7" font-family="Times,serif" font-size="14.00">(SetLedColor)</text>
</g>
<!-- command_FdRwR279p7LSMzPNkjkQ9n7t5gP3TN9dqA7ghJXeRkTJ&#45;&gt;command_GHenAmGbUs9LDLFqUgw9U8PYwRcj6n9MfyBtY7NJTPCT -->
<g id="edge1" class="edge">
<title>command_FdRwR279p7LSMzPNkjkQ9n7t5gP3TN9dqA7ghJXeRkTJ&#45;&gt;command_GHenAmGbUs9LDLFqUgw9U8PYwRcj6n9MfyBtY7NJTPCT</title>
<path fill="none" stroke="black" d="M2916.35,-284C2924.35,-284 2932.54,-284 2940.62,-284"/>
<polygon fill="black" stroke="black" points="2940.4,-287.5 2950.4,-284 2940.4,-280.5 2940.4,-287.5"/>
</g>
<!-- command_FWwkuBKinvCE5eKb2pGSUs2zbFNdnS8YfC5bAQddCqsw -->
<g id="node3" class="node">
<title>command_FWwkuBKinvCE5eKb2pGSUs2zbFNdnS8YfC5bAQddCqsw</title>
<ellipse fill="none" stroke="black" cx="2680.89" cy="-284" rx="66.47" ry="28.99"/>
<text text-anchor="middle" x="2680.89" y="-287.2" font-family="Times,serif" font-size="14.00">FWwkuBKi</text>
<text text-anchor="middle" x="2680.89" y="-270.7" font-family="Times,serif" font-size="14.00">(SetLedColor)</text>
</g>
<!-- command_FWwkuBKinvCE5eKb2pGSUs2zbFNdnS8YfC5bAQddCqsw&#45;&gt;command_FdRwR279p7LSMzPNkjkQ9n7t5gP3TN9dqA7ghJXeRkTJ -->
<g id="edge2" class="edge">
<title>command_FWwkuBKinvCE5eKb2pGSUs2zbFNdnS8YfC5bAQddCqsw&#45;&gt;command_FdRwR279p7LSMzPNkjkQ9n7t5gP3TN9dqA7ghJXeRkTJ</title>
<path fill="none" stroke="black" d="M2747.39,-284C2755.34,-284 2763.51,-284 2771.61,-284"/>
<polygon fill="black" stroke="black" points="2771.45,-287.5 2781.45,-284 2771.45,-280.5 2771.45,-287.5"/>
</g>
<!-- command_EKWgqv8pGNAQBNHcBg1LNHFmum2SP5rTnGEXPXSC8zBV -->
<g id="node4" class="node">
<title>command_EKWgqv8pGNAQBNHcBg1LNHFmum2SP5rTnGEXPXSC8zBV</title>
<ellipse fill="none" stroke="black" cx="2511.95" cy="-284" rx="66.47" ry="28.99"/>
<text text-anchor="middle" x="2511.95" y="-287.2" font-family="Times,serif" font-size="14.00">EKWgqv8p</text>
<text text-anchor="middle" x="2511.95" y="-270.7" font-family="Times,serif" font-size="14.00">(SetLedColor)</text>
</g>
<!-- command_EKWgqv8pGNAQBNHcBg1LNHFmum2SP5rTnGEXPXSC8zBV&#45;&gt;command_FWwkuBKinvCE5eKb2pGSUs2zbFNdnS8YfC5bAQddCqsw -->
<g id="edge3" class="edge">
<title>command_EKWgqv8pGNAQBNHcBg1LNHFmum2SP5rTnGEXPXSC8zBV&#45;&gt;command_FWwkuBKinvCE5eKb2pGSUs2zbFNdnS8YfC5bAQddCqsw</title>
<path fill="none" stroke="black" d="M2578.45,-284C2586.4,-284 2594.57,-284 2602.67,-284"/>
<polygon fill="black" stroke="black" points="2602.52,-287.5 2612.52,-284 2602.52,-280.5 2602.52,-287.5"/>
</g>
<!-- command_G6NHTuFypE6R12ZatQGKRu5jSSn5RQhZNfHmGuPbuhrp -->
<g id="node5" class="node">
<title>command_G6NHTuFypE6R12ZatQGKRu5jSSn5RQhZNfHmGuPbuhrp</title>
<ellipse fill="none" stroke="black" cx="2343.02" cy="-284" rx="66.47" ry="28.99"/>
<text text-anchor="middle" x="2343.02" y="-287.2" font-family="Times,serif" font-size="14.00">G6NHTuFy</text>
<text text-anchor="middle" x="2343.02" y="-270.7" font-family="Times,serif" font-size="14.00">(SetLedColor)</text>
</g>
<!-- command_G6NHTuFypE6R12ZatQGKRu5jSSn5RQhZNfHmGuPbuhrp&#45;&gt;command_EKWgqv8pGNAQBNHcBg1LNHFmum2SP5rTnGEXPXSC8zBV -->
<g id="edge4" class="edge">
<title>command_G6NHTuFypE6R12ZatQGKRu5jSSn5RQhZNfHmGuPbuhrp&#45;&gt;command_EKWgqv8pGNAQBNHcBg1LNHFmum2SP5rTnGEXPXSC8zBV</title>
<path fill="none" stroke="black" d="M2409.52,-284C2417.46,-284 2425.64,-284 2433.73,-284"/>
<polygon fill="black" stroke="black" points="2433.58,-287.5 2443.58,-284 2433.58,-280.5 2433.58,-287.5"/>
</g>
<!-- command_GjRmpKU8ZAYE6jeZpGr1Y4nTD3gXMK22DEDWJqsKr8at -->
<g id="node6" class="node">
<title>command_GjRmpKU8ZAYE6jeZpGr1Y4nTD3gXMK22DEDWJqsKr8at</title>
<ellipse fill="none" stroke="black" cx="2343.02" cy="-178" rx="66.47" ry="28.99"/>
<text text-anchor="middle" x="2343.02" y="-181.2" font-family="Times,serif" font-size="14.00">GjRmpKU8</text>
<text text-anchor="middle" x="2343.02" y="-164.7" font-family="Times,serif" font-size="14.00">(SetLedColor)</text>
</g>
<!-- command_GjRmpKU8ZAYE6jeZpGr1Y4nTD3gXMK22DEDWJqsKr8at&#45;&gt;command_EKWgqv8pGNAQBNHcBg1LNHFmum2SP5rTnGEXPXSC8zBV -->
<g id="edge5" class="edge">
<title>command_GjRmpKU8ZAYE6jeZpGr1Y4nTD3gXMK22DEDWJqsKr8at&#45;&gt;command_EKWgqv8pGNAQBNHcBg1LNHFmum2SP5rTnGEXPXSC8zBV</title>
<path fill="none" stroke="black" d="M2381.48,-201.79C2405.78,-217.21 2437.63,-237.44 2463.66,-253.97"/>
<polygon fill="black" stroke="black" points="2461.73,-256.89 2472.05,-259.3 2465.48,-250.98 2461.73,-256.89"/>
</g>
<!-- command_86MM6fwYjEnAzBwssTuqdnL3q3kBE4TKGKKEC2AVUcYF -->
<g id="node7" class="node">
<title>command_86MM6fwYjEnAzBwssTuqdnL3q3kBE4TKGKKEC2AVUcYF</title>
<ellipse fill="lightgreen" stroke="lightgreen" cx="2182.03" cy="-231" rx="58.52" ry="18"/>
<text text-anchor="middle" x="2182.03" y="-225.95" font-family="Times,serif" font-size="14.00">86MM6fwY</text>
</g>
<!-- command_86MM6fwYjEnAzBwssTuqdnL3q3kBE4TKGKKEC2AVUcYF&#45;&gt;command_G6NHTuFypE6R12ZatQGKRu5jSSn5RQhZNfHmGuPbuhrp -->
<g id="edge6" class="edge">
<title>command_86MM6fwYjEnAzBwssTuqdnL3q3kBE4TKGKKEC2AVUcYF&#45;&gt;command_G6NHTuFypE6R12ZatQGKRu5jSSn5RQhZNfHmGuPbuhrp</title>
<path fill="none" stroke="black" d="M2222.74,-244.24C2239.58,-249.85 2259.63,-256.53 2278.43,-262.8"/>
<polygon fill="black" stroke="black" points="2277.3,-266.11 2287.89,-265.96 2279.51,-259.47 2277.3,-266.11"/>
</g>
<!-- command_86MM6fwYjEnAzBwssTuqdnL3q3kBE4TKGKKEC2AVUcYF&#45;&gt;command_GjRmpKU8ZAYE6jeZpGr1Y4nTD3gXMK22DEDWJqsKr8at -->
<g id="edge7" class="edge">
<title>command_86MM6fwYjEnAzBwssTuqdnL3q3kBE4TKGKKEC2AVUcYF&#45;&gt;command_GjRmpKU8ZAYE6jeZpGr1Y4nTD3gXMK22DEDWJqsKr8at</title>
<path fill="none" stroke="black" d="M2222.74,-217.76C2239.58,-212.15 2259.63,-205.47 2278.43,-199.2"/>
<polygon fill="black" stroke="black" points="2279.51,-202.53 2287.89,-196.04 2277.3,-195.89 2279.51,-202.53"/>
</g>
<!-- command_4Q7jhpwYRX9N9ge8f9oQhydjLeBKx4QgpGNbi5Zgvy14 -->
<g id="node8" class="node">
<title>command_4Q7jhpwYRX9N9ge8f9oQhydjLeBKx4QgpGNbi5Zgvy14</title>
<ellipse fill="none" stroke="black" cx="2021.05" cy="-231" rx="66.47" ry="28.99"/>
<text text-anchor="middle" x="2021.05" y="-234.2" font-family="Times,serif" font-size="14.00">4Q7jhpwY</text>
<text text-anchor="middle" x="2021.05" y="-217.7" font-family="Times,serif" font-size="14.00">(SetLedColor)</text>
</g>
<!-- command_4Q7jhpwYRX9N9ge8f9oQhydjLeBKx4QgpGNbi5Zgvy14&#45;&gt;command_86MM6fwYjEnAzBwssTuqdnL3q3kBE4TKGKKEC2AVUcYF -->
<g id="edge8" class="edge">
<title>command_4Q7jhpwYRX9N9ge8f9oQhydjLeBKx4QgpGNbi5Zgvy14&#45;&gt;command_86MM6fwYjEnAzBwssTuqdnL3q3kBE4TKGKKEC2AVUcYF</title>
<path fill="none" stroke="black" d="M2087.63,-231C2095.65,-231 2103.87,-231 2111.94,-231"/>
<polygon fill="black" stroke="black" points="2111.71,-234.5 2121.71,-231 2111.71,-227.5 2111.71,-234.5"/>
</g>
<!-- command_24YFC9xG2qygQJ3RLvFLau9ikuEpqae2bZz2TZL5symY -->
<g id="node9" class="node">
<title>command_24YFC9xG2qygQJ3RLvFLau9ikuEpqae2bZz2TZL5symY</title>
<ellipse fill="none" stroke="black" cx="1852.11" cy="-231" rx="66.47" ry="28.99"/>
<text text-anchor="middle" x="1852.11" y="-234.2" font-family="Times,serif" font-size="14.00">24YFC9xG</text>
<text text-anchor="middle" x="1852.11" y="-217.7" font-family="Times,serif" font-size="14.00">(SetLedColor)</text>
</g>
<!-- command_24YFC9xG2qygQJ3RLvFLau9ikuEpqae2bZz2TZL5symY&#45;&gt;command_4Q7jhpwYRX9N9ge8f9oQhydjLeBKx4QgpGNbi5Zgvy14 -->
<g id="edge9" class="edge">
<title>command_24YFC9xG2qygQJ3RLvFLau9ikuEpqae2bZz2TZL5symY&#45;&gt;command_4Q7jhpwYRX9N9ge8f9oQhydjLeBKx4QgpGNbi5Zgvy14</title>
<path fill="none" stroke="black" d="M1918.61,-231C1926.56,-231 1934.73,-231 1942.83,-231"/>
<polygon fill="black" stroke="black" points="1942.68,-234.5 1952.68,-231 1942.68,-227.5 1942.68,-234.5"/>
</g>
<!-- command_DUAVjfUN6TkgCXxsBCeo3bk3DNQRRkAW3e9knqjg3oBy -->
<g id="node10" class="node">
<title>command_DUAVjfUN6TkgCXxsBCeo3bk3DNQRRkAW3e9knqjg3oBy</title>
<ellipse fill="none" stroke="black" cx="1683.18" cy="-231" rx="66.47" ry="28.99"/>
<text text-anchor="middle" x="1683.18" y="-234.2" font-family="Times,serif" font-size="14.00">DUAVjfUN</text>
<text text-anchor="middle" x="1683.18" y="-217.7" font-family="Times,serif" font-size="14.00">(SetLedColor)</text>
</g>
<!-- command_DUAVjfUN6TkgCXxsBCeo3bk3DNQRRkAW3e9knqjg3oBy&#45;&gt;command_24YFC9xG2qygQJ3RLvFLau9ikuEpqae2bZz2TZL5symY -->
<g id="edge10" class="edge">
<title>command_DUAVjfUN6TkgCXxsBCeo3bk3DNQRRkAW3e9knqjg3oBy&#45;&gt;command_24YFC9xG2qygQJ3RLvFLau9ikuEpqae2bZz2TZL5symY</title>
<path fill="none" stroke="black" d="M1749.67,-231C1757.62,-231 1765.8,-231 1773.89,-231"/>
<polygon fill="black" stroke="black" points="1773.74,-234.5 1783.74,-231 1773.74,-227.5 1773.74,-234.5"/>
</g>
<!-- command_3nNhwXRdXtAcFsFER4XhpKYpKVvao6tiBFMe2QhrUsje -->
<g id="node11" class="node">
<title>command_3nNhwXRdXtAcFsFER4XhpKYpKVvao6tiBFMe2QhrUsje</title>
<ellipse fill="none" stroke="black" cx="1683.18" cy="-125" rx="66.47" ry="28.99"/>
<text text-anchor="middle" x="1683.18" y="-128.2" font-family="Times,serif" font-size="14.00">3nNhwXRd</text>
<text text-anchor="middle" x="1683.18" y="-111.7" font-family="Times,serif" font-size="14.00">(SetLedColor)</text>
</g>
<!-- command_3nNhwXRdXtAcFsFER4XhpKYpKVvao6tiBFMe2QhrUsje&#45;&gt;command_24YFC9xG2qygQJ3RLvFLau9ikuEpqae2bZz2TZL5symY -->
<g id="edge11" class="edge">
<title>command_3nNhwXRdXtAcFsFER4XhpKYpKVvao6tiBFMe2QhrUsje&#45;&gt;command_24YFC9xG2qygQJ3RLvFLau9ikuEpqae2bZz2TZL5symY</title>
<path fill="none" stroke="black" d="M1721.64,-148.79C1745.93,-164.21 1777.79,-184.44 1803.82,-200.97"/>
<polygon fill="black" stroke="black" points="1801.89,-203.89 1812.21,-206.3 1805.64,-197.98 1801.89,-203.89"/>
</g>
<!-- command_H4RPRB25HBW4sBbY3oii6YQNGE8j4k8hchVcD2fEwrWN -->
<g id="node12" class="node">
<title>command_H4RPRB25HBW4sBbY3oii6YQNGE8j4k8hchVcD2fEwrWN</title>
<ellipse fill="lightgreen" stroke="lightgreen" cx="1525.77" cy="-151" rx="54.93" ry="18"/>
<text text-anchor="middle" x="1525.77" y="-145.95" font-family="Times,serif" font-size="14.00">H4RPRB25</text>
</g>
<!-- command_H4RPRB25HBW4sBbY3oii6YQNGE8j4k8hchVcD2fEwrWN&#45;&gt;command_DUAVjfUN6TkgCXxsBCeo3bk3DNQRRkAW3e9knqjg3oBy -->
<g id="edge13" class="edge">
<title>command_H4RPRB25HBW4sBbY3oii6YQNGE8j4k8hchVcD2fEwrWN&#45;&gt;command_DUAVjfUN6TkgCXxsBCeo3bk3DNQRRkAW3e9knqjg3oBy</title>
<path fill="none" stroke="black" d="M1556.37,-166.24C1576.87,-176.79 1604.73,-191.13 1629.02,-203.63"/>
<polygon fill="black" stroke="black" points="1627.34,-206.71 1637.83,-208.17 1630.55,-200.48 1627.34,-206.71"/>
</g>
<!-- command_H4RPRB25HBW4sBbY3oii6YQNGE8j4k8hchVcD2fEwrWN&#45;&gt;command_3nNhwXRdXtAcFsFER4XhpKYpKVvao6tiBFMe2QhrUsje -->
<g id="edge12" class="edge">
<title>command_H4RPRB25HBW4sBbY3oii6YQNGE8j4k8hchVcD2fEwrWN&#45;&gt;command_3nNhwXRdXtAcFsFER4XhpKYpKVvao6tiBFMe2QhrUsje</title>
<path fill="none" stroke="black" d="M1575.52,-142.84C1586.2,-141.06 1597.73,-139.13 1609.13,-137.22"/>
<polygon fill="black" stroke="black" points="1609.67,-140.68 1618.96,-135.58 1608.52,-133.78 1609.67,-140.68"/>
</g>
<!-- command_FSDg6YRtq3ASUgd3e6pqSbhGx6NgHGx6VnVMUcqc7XXn -->
<g id="node13" class="node">
<title>command_FSDg6YRtq3ASUgd3e6pqSbhGx6NgHGx6VnVMUcqc7XXn</title>
<ellipse fill="none" stroke="black" cx="1368.37" cy="-204" rx="66.47" ry="28.99"/>
<text text-anchor="middle" x="1368.37" y="-207.2" font-family="Times,serif" font-size="14.00">FSDg6YRt</text>
<text text-anchor="middle" x="1368.37" y="-190.7" font-family="Times,serif" font-size="14.00">(SetLedColor)</text>
</g>
<!-- command_FSDg6YRtq3ASUgd3e6pqSbhGx6NgHGx6VnVMUcqc7XXn&#45;&gt;command_H4RPRB25HBW4sBbY3oii6YQNGE8j4k8hchVcD2fEwrWN -->
<g id="edge14" class="edge">
<title>command_FSDg6YRtq3ASUgd3e6pqSbhGx6NgHGx6VnVMUcqc7XXn&#45;&gt;command_H4RPRB25HBW4sBbY3oii6YQNGE8j4k8hchVcD2fEwrWN</title>
<path fill="none" stroke="black" d="M1421.55,-186.2C1439.22,-180.18 1458.87,-173.48 1476.25,-167.55"/>
<polygon fill="black" stroke="black" points="1476.97,-171 1485.3,-164.46 1474.71,-164.38 1476.97,-171"/>
</g>
<!-- command_29cfmN4GxWPJkAX4bf8bLU2rZagQjiGcsaAmi9PkVsKq -->
<g id="node14" class="node">
<title>command_29cfmN4GxWPJkAX4bf8bLU2rZagQjiGcsaAmi9PkVsKq</title>
<ellipse fill="none" stroke="black" cx="1368.37" cy="-98" rx="66.47" ry="28.99"/>
<text text-anchor="middle" x="1368.37" y="-101.2" font-family="Times,serif" font-size="14.00">29cfmN4G</text>
<text text-anchor="middle" x="1368.37" y="-84.7" font-family="Times,serif" font-size="14.00">(SetLedColor)</text>
</g>
<!-- command_29cfmN4GxWPJkAX4bf8bLU2rZagQjiGcsaAmi9PkVsKq&#45;&gt;command_H4RPRB25HBW4sBbY3oii6YQNGE8j4k8hchVcD2fEwrWN -->
<g id="edge15" class="edge">
<title>command_29cfmN4GxWPJkAX4bf8bLU2rZagQjiGcsaAmi9PkVsKq&#45;&gt;command_H4RPRB25HBW4sBbY3oii6YQNGE8j4k8hchVcD2fEwrWN</title>
<path fill="none" stroke="black" d="M1421.55,-115.8C1439.22,-121.82 1458.87,-128.52 1476.25,-134.45"/>
<polygon fill="black" stroke="black" points="1474.71,-137.62 1485.3,-137.54 1476.97,-131 1474.71,-137.62"/>
</g>
<!-- command_4idTMGryasst4FyvyNHxcZHGWsYb3DPTa21jvtFGDCU2 -->
<g id="node15" class="node">
<title>command_4idTMGryasst4FyvyNHxcZHGWsYb3DPTa21jvtFGDCU2</title>
<ellipse fill="lightgreen" stroke="lightgreen" cx="1214.55" cy="-151" rx="51.35" ry="18"/>
<text text-anchor="middle" x="1214.55" y="-145.95" font-family="Times,serif" font-size="14.00">4idTMGry</text>
</g>
<!-- command_4idTMGryasst4FyvyNHxcZHGWsYb3DPTa21jvtFGDCU2&#45;&gt;command_FSDg6YRtq3ASUgd3e6pqSbhGx6NgHGx6VnVMUcqc7XXn -->
<g id="edge17" class="edge">
<title>command_4idTMGryasst4FyvyNHxcZHGWsYb3DPTa21jvtFGDCU2&#45;&gt;command_FSDg6YRtq3ASUgd3e6pqSbhGx6NgHGx6VnVMUcqc7XXn</title>
<path fill="none" stroke="black" d="M1251.92,-163.69C1267.76,-169.22 1286.78,-175.87 1304.78,-182.15"/>
<polygon fill="black" stroke="black" points="1303.49,-185.41 1314.08,-185.4 1305.8,-178.8 1303.49,-185.41"/>
</g>
<!-- command_4idTMGryasst4FyvyNHxcZHGWsYb3DPTa21jvtFGDCU2&#45;&gt;command_29cfmN4GxWPJkAX4bf8bLU2rZagQjiGcsaAmi9PkVsKq -->
<g id="edge16" class="edge">
<title>command_4idTMGryasst4FyvyNHxcZHGWsYb3DPTa21jvtFGDCU2&#45;&gt;command_29cfmN4GxWPJkAX4bf8bLU2rZagQjiGcsaAmi9PkVsKq</title>
<path fill="none" stroke="black" d="M1251.92,-138.31C1267.76,-132.78 1286.78,-126.13 1304.78,-119.85"/>
<polygon fill="black" stroke="black" points="1305.8,-123.2 1314.08,-116.6 1303.49,-116.59 1305.8,-123.2"/>
</g>
<!-- command_HyG6R7iBooJQJbZomaqS7taZHube2YgW8FkQ1VoDYZpx -->
<g id="node16" class="node">
<title>command_HyG6R7iBooJQJbZomaqS7taZHube2YgW8FkQ1VoDYZpx</title>
<ellipse fill="none" stroke="black" cx="1060.73" cy="-151" rx="66.47" ry="28.99"/>
<text text-anchor="middle" x="1060.73" y="-154.2" font-family="Times,serif" font-size="14.00">HyG6R7iB</text>
<text text-anchor="middle" x="1060.73" y="-137.7" font-family="Times,serif" font-size="14.00">(SetLedColor)</text>
</g>
<!-- command_HyG6R7iBooJQJbZomaqS7taZHube2YgW8FkQ1VoDYZpx&#45;&gt;command_4idTMGryasst4FyvyNHxcZHGWsYb3DPTa21jvtFGDCU2 -->
<g id="edge18" class="edge">
<title>command_HyG6R7iBooJQJbZomaqS7taZHube2YgW8FkQ1VoDYZpx&#45;&gt;command_4idTMGryasst4FyvyNHxcZHGWsYb3DPTa21jvtFGDCU2</title>
<path fill="none" stroke="black" d="M1127.44,-151C1135.41,-151 1143.53,-151 1151.45,-151"/>
<polygon fill="black" stroke="black" points="1151.34,-154.5 1161.34,-151 1151.34,-147.5 1151.34,-154.5"/>
</g>
<!-- command_FYpDGR9v3swy1fHN1D5rNGiTJjrv4ikuoTx1Lkmxo6se -->
<g id="node17" class="node">
<title>command_FYpDGR9v3swy1fHN1D5rNGiTJjrv4ikuoTx1Lkmxo6se</title>
<ellipse fill="none" stroke="black" cx="891.8" cy="-151" rx="66.47" ry="28.99"/>
<text text-anchor="middle" x="891.8" y="-154.2" font-family="Times,serif" font-size="14.00">FYpDGR9v</text>
<text text-anchor="middle" x="891.8" y="-137.7" font-family="Times,serif" font-size="14.00">(SetLedColor)</text>
</g>
<!-- command_FYpDGR9v3swy1fHN1D5rNGiTJjrv4ikuoTx1Lkmxo6se&#45;&gt;command_HyG6R7iBooJQJbZomaqS7taZHube2YgW8FkQ1VoDYZpx -->
<g id="edge19" class="edge">
<title>command_FYpDGR9v3swy1fHN1D5rNGiTJjrv4ikuoTx1Lkmxo6se&#45;&gt;command_HyG6R7iBooJQJbZomaqS7taZHube2YgW8FkQ1VoDYZpx</title>
<path fill="none" stroke="black" d="M958.3,-151C966.24,-151 974.42,-151 982.51,-151"/>
<polygon fill="black" stroke="black" points="982.36,-154.5 992.36,-151 982.36,-147.5 982.36,-154.5"/>
</g>
<!-- command_7hBByK7nBMeCwpwtDLGfP4Q2wQAF88PYfyDfdD6edc9S -->
<g id="node18" class="node">
<title>command_7hBByK7nBMeCwpwtDLGfP4Q2wQAF88PYfyDfdD6edc9S</title>
<ellipse fill="none" stroke="black" cx="722.86" cy="-151" rx="66.47" ry="28.99"/>
<text text-anchor="middle" x="722.86" y="-154.2" font-family="Times,serif" font-size="14.00">7hBByK7n</text>
<text text-anchor="middle" x="722.86" y="-137.7" font-family="Times,serif" font-size="14.00">(SetLedColor)</text>
</g>
<!-- command_7hBByK7nBMeCwpwtDLGfP4Q2wQAF88PYfyDfdD6edc9S&#45;&gt;command_FYpDGR9v3swy1fHN1D5rNGiTJjrv4ikuoTx1Lkmxo6se -->
<g id="edge20" class="edge">
<title>command_7hBByK7nBMeCwpwtDLGfP4Q2wQAF88PYfyDfdD6edc9S&#45;&gt;command_FYpDGR9v3swy1fHN1D5rNGiTJjrv4ikuoTx1Lkmxo6se</title>
<path fill="none" stroke="black" d="M789.36,-151C797.31,-151 805.48,-151 813.58,-151"/>
<polygon fill="black" stroke="black" points="813.43,-154.5 823.43,-151 813.43,-147.5 813.43,-154.5"/>
</g>
<!-- command_951xTwjusDjMS6HMSG8ajeAazgCAWHhdvTZ2eWhNTyfN -->
<g id="node19" class="node">
<title>command_951xTwjusDjMS6HMSG8ajeAazgCAWHhdvTZ2eWhNTyfN</title>
<ellipse fill="none" stroke="black" cx="553.92" cy="-151" rx="66.47" ry="28.99"/>
<text text-anchor="middle" x="553.92" y="-154.2" font-family="Times,serif" font-size="14.00">951xTwju</text>
<text text-anchor="middle" x="553.92" y="-137.7" font-family="Times,serif" font-size="14.00">(SetLedColor)</text>
</g>
<!-- command_951xTwjusDjMS6HMSG8ajeAazgCAWHhdvTZ2eWhNTyfN&#45;&gt;command_7hBByK7nBMeCwpwtDLGfP4Q2wQAF88PYfyDfdD6edc9S -->
<g id="edge21" class="edge">
<title>command_951xTwjusDjMS6HMSG8ajeAazgCAWHhdvTZ2eWhNTyfN&#45;&gt;command_7hBByK7nBMeCwpwtDLGfP4Q2wQAF88PYfyDfdD6edc9S</title>
<path fill="none" stroke="black" d="M620.42,-151C628.37,-151 636.55,-151 644.64,-151"/>
<polygon fill="black" stroke="black" points="644.49,-154.5 654.49,-151 644.49,-147.5 644.49,-154.5"/>
</g>
<!-- command_3Q835W8SaujQ1N1ow3mk3NaiCW3kyqrEAgMuTXc82P5e -->
<g id="node20" class="node">
<title>command_3Q835W8SaujQ1N1ow3mk3NaiCW3kyqrEAgMuTXc82P5e</title>
<ellipse fill="none" stroke="black" cx="384.99" cy="-151" rx="66.47" ry="28.99"/>
<text text-anchor="middle" x="384.99" y="-154.2" font-family="Times,serif" font-size="14.00">3Q835W8S</text>
<text text-anchor="middle" x="384.99" y="-137.7" font-family="Times,serif" font-size="14.00">(SetLedColor)</text>
</g>
<!-- command_3Q835W8SaujQ1N1ow3mk3NaiCW3kyqrEAgMuTXc82P5e&#45;&gt;command_951xTwjusDjMS6HMSG8ajeAazgCAWHhdvTZ2eWhNTyfN -->
<g id="edge22" class="edge">
<title>command_3Q835W8SaujQ1N1ow3mk3NaiCW3kyqrEAgMuTXc82P5e&#45;&gt;command_951xTwjusDjMS6HMSG8ajeAazgCAWHhdvTZ2eWhNTyfN</title>
<path fill="none" stroke="black" d="M451.49,-151C459.43,-151 467.61,-151 475.71,-151"/>
<polygon fill="black" stroke="black" points="475.55,-154.5 485.55,-151 475.55,-147.5 475.55,-154.5"/>
</g>
<!-- command_8cstUM3eqdMbhm3DzptFUL3sn7gv7StzHA5BvNteCvrL -->
<g id="node21" class="node">
<title>command_8cstUM3eqdMbhm3DzptFUL3sn7gv7StzHA5BvNteCvrL</title>
<ellipse fill="none" stroke="black" cx="384.99" cy="-45" rx="66.47" ry="28.99"/>
<text text-anchor="middle" x="384.99" y="-48.2" font-family="Times,serif" font-size="14.00">8cstUM3e</text>
<text text-anchor="middle" x="384.99" y="-31.7" font-family="Times,serif" font-size="14.00">(SetLedColor)</text>
</g>
<!-- command_8cstUM3eqdMbhm3DzptFUL3sn7gv7StzHA5BvNteCvrL&#45;&gt;command_951xTwjusDjMS6HMSG8ajeAazgCAWHhdvTZ2eWhNTyfN -->
<g id="edge23" class="edge">
<title>command_8cstUM3eqdMbhm3DzptFUL3sn7gv7StzHA5BvNteCvrL&#45;&gt;command_951xTwjusDjMS6HMSG8ajeAazgCAWHhdvTZ2eWhNTyfN</title>
<path fill="none" stroke="black" d="M423.45,-68.79C447.75,-84.21 479.6,-104.44 505.63,-120.97"/>
<polygon fill="black" stroke="black" points="503.7,-123.89 514.02,-126.3 507.45,-117.98 503.7,-123.89"/>
</g>
<!-- command_AAJRci2spAWagytyMtPmS8E2PqSW3LcEhk25ubWbB3xt -->
<g id="node22" class="node">
<title>command_AAJRci2spAWagytyMtPmS8E2PqSW3LcEhk25ubWbB3xt</title>
<ellipse fill="lightgreen" stroke="lightgreen" cx="233.73" cy="-98" rx="48.79" ry="18"/>
<text text-anchor="middle" x="233.73" y="-92.95" font-family="Times,serif" font-size="14.00">AAJRci2s</text>
</g>
<!-- command_AAJRci2spAWagytyMtPmS8E2PqSW3LcEhk25ubWbB3xt&#45;&gt;command_3Q835W8SaujQ1N1ow3mk3NaiCW3kyqrEAgMuTXc82P5e -->
<g id="edge24" class="edge">
<title>command_AAJRci2spAWagytyMtPmS8E2PqSW3LcEhk25ubWbB3xt&#45;&gt;command_3Q835W8SaujQ1N1ow3mk3NaiCW3kyqrEAgMuTXc82P5e</title>
<path fill="none" stroke="black" d="M269.72,-110.43C285.28,-115.95 304.08,-122.62 321.89,-128.95"/>
<polygon fill="black" stroke="black" points="320.5,-132.17 331.1,-132.22 322.84,-125.57 320.5,-132.17"/>
</g>
<!-- command_AAJRci2spAWagytyMtPmS8E2PqSW3LcEhk25ubWbB3xt&#45;&gt;command_8cstUM3eqdMbhm3DzptFUL3sn7gv7StzHA5BvNteCvrL -->
<g id="edge25" class="edge">
<title>command_AAJRci2spAWagytyMtPmS8E2PqSW3LcEhk25ubWbB3xt&#45;&gt;command_8cstUM3eqdMbhm3DzptFUL3sn7gv7StzHA5BvNteCvrL</title>
<path fill="none" stroke="black" d="M269.72,-85.57C285.28,-80.05 304.08,-73.38 321.89,-67.05"/>
<polygon fill="black" stroke="black" points="322.84,-70.43 331.1,-63.78 320.5,-63.83 322.84,-70.43"/>
</g>
<!-- command_BPbj5vtVYzZdWtX3Yibr4FKmwDPbLrt4V3Zvtc1F3y27 -->
<g id="node23" class="node">
<title>command_BPbj5vtVYzZdWtX3Yibr4FKmwDPbLrt4V3Zvtc1F3y27</title>
<ellipse fill="none" stroke="black" cx="82.47" cy="-98" rx="66.47" ry="28.99"/>
<text text-anchor="middle" x="82.47" y="-101.2" font-family="Times,serif" font-size="14.00">BPbj5vtV</text>
<text text-anchor="middle" x="82.47" y="-84.7" font-family="Times,serif" font-size="14.00">(SetLedColor)</text>
</g>
<!-- command_BPbj5vtVYzZdWtX3Yibr4FKmwDPbLrt4V3Zvtc1F3y27&#45;&gt;command_AAJRci2spAWagytyMtPmS8E2PqSW3LcEhk25ubWbB3xt -->
<g id="edge26" class="edge">
<title>command_BPbj5vtVYzZdWtX3Yibr4FKmwDPbLrt4V3Zvtc1F3y27&#45;&gt;command_AAJRci2spAWagytyMtPmS8E2PqSW3LcEhk25ubWbB3xt</title>
<path fill="none" stroke="black" d="M149.37,-98C157.35,-98 165.46,-98 173.33,-98"/>
<polygon fill="black" stroke="black" points="173.14,-101.5 183.14,-98 173.14,-94.5 173.14,-101.5"/>
</g>
</g>
</svg>
