<?xml version="1.0" encoding="UTF-8" standalone="no"?>
<!DOCTYPE svg PUBLIC "-//W3C//DTD SVG 1.1//EN"
 "http://www.w3.org/Graphics/SVG/1.1/DTD/svg11.dtd">
<!-- Generated by graphviz version 12.2.1 (20241206.2353)
 -->
<!-- Title: G Pages: 1 -->
<svg width="3098pt" height="322pt"
 viewBox="0.00 0.00 3097.56 322.00" xmlns="http://www.w3.org/2000/svg" xmlns:xlink="http://www.w3.org/1999/xlink">
<g id="graph0" class="graph" transform="scale(1 1) rotate(0) translate(4 318)">
<title>G</title>
<polygon fill="white" stroke="none" points="-4,4 -4,-318 3093.56,-318 3093.56,4 -4,4"/>
<g id="clust1" class="cluster">
<title>cluster_segment_12</title>
<polygon fill="none" stroke="black" points="2944.29,-208 2944.29,-306 3081.56,-306 3081.56,-208 2944.29,-208"/>
<text text-anchor="middle" x="3012.93" y="-288.7" font-family="Times,serif" font-size="14.00">Segment 12</text>
</g>
<g id="clust2" class="cluster">
<title>cluster_segment_154</title>
<polygon fill="none" stroke="black" points="2268.55,-208 2268.55,-306 2924.29,-306 2924.29,-208 2268.55,-208"/>
<text text-anchor="middle" x="2596.42" y="-288.7" font-family="Times,serif" font-size="14.00">Segment 154</text>
</g>
<g id="clust3" class="cluster">
<title>cluster_segment_804</title>
<polygon fill="none" stroke="black" points="2268.55,-102 2268.55,-200 2417.49,-200 2417.49,-102 2268.55,-102"/>
<text text-anchor="middle" x="2343.02" y="-182.7" font-family="Times,serif" font-size="14.00">Segment 804</text>
</g>
<g id="clust4" class="cluster">
<title>cluster_segment_1011</title>
<polygon fill="none" stroke="black" points="1608.71,-155 1608.71,-253 2248.55,-253 2248.55,-155 1608.71,-155"/>
<text text-anchor="middle" x="1928.63" y="-235.7" font-family="Times,serif" font-size="14.00">Segment 1011</text>
</g>
<g id="clust5" class="cluster">
<title>cluster_segment_1667</title>
<polygon fill="none" stroke="black" points="1608.71,-49 1608.71,-147 1757.64,-147 1757.64,-49 1608.71,-49"/>
<text text-anchor="middle" x="1683.18" y="-129.7" font-family="Times,serif" font-size="14.00">Segment 1667</text>
</g>
<g id="clust6" class="cluster">
<title>cluster_segment_1874</title>
<polygon fill="none" stroke="black" points="1462.84,-73 1462.84,-150 1588.71,-150 1588.71,-73 1462.84,-73"/>
<text text-anchor="middle" x="1525.77" y="-132.7" font-family="Times,serif" font-size="14.00">Segment 1874</text>
</g>
<g id="clust7" class="cluster">
<title>cluster_segment_2075</title>
<polygon fill="none" stroke="black" points="1293.9,-115 1293.9,-213 1442.84,-213 1442.84,-115 1293.9,-115"/>
<text text-anchor="middle" x="1368.37" y="-195.7" font-family="Times,serif" font-size="14.00">Segment 2075</text>
</g>
<g id="clust8" class="cluster">
<title>cluster_segment_2284</title>
<polygon fill="none" stroke="black" points="1293.9,-9 1293.9,-107 1442.84,-107 1442.84,-9 1293.9,-9"/>
<text text-anchor="middle" x="1368.37" y="-89.7" font-family="Times,serif" font-size="14.00">Segment 2284</text>
</g>
<g id="clust9" class="cluster">
<title>cluster_segment_2492</title>
<polygon fill="none" stroke="black" points="986.27,-35 986.27,-133 1273.9,-133 1273.9,-35 986.27,-35"/>
<text text-anchor="middle" x="1130.08" y="-115.7" font-family="Times,serif" font-size="14.00">Segment 2492</text>
</g>
<g id="clust10" class="cluster">
<title>cluster_segment_2839</title>
<polygon fill="none" stroke="black" points="817.33,-35 817.33,-133 966.27,-133 966.27,-35 817.33,-35"/>
<text text-anchor="middle" x="891.8" y="-115.7" font-family="Times,serif" font-size="14.00">Segment 2839</text>
</g>
<g id="clust11" class="cluster">
<title>cluster_segment_3048</title>
<polygon fill="none" stroke="black" points="648.39,-35 648.39,-133 797.33,-133 797.33,-35 648.39,-35"/>
<text text-anchor="middle" x="722.86" y="-115.7" font-family="Times,serif" font-size="14.00">Segment 3048</text>
</g>
<g id="clust12" class="cluster">
<title>cluster_segment_3256</title>
<polygon fill="none" stroke="black" points="479.46,-35 479.46,-133 628.39,-133 628.39,-35 479.46,-35"/>
<text text-anchor="middle" x="553.92" y="-115.7" font-family="Times,serif" font-size="14.00">Segment 3256</text>
</g>
<g id="clust13" class="cluster">
<title>cluster_segment_3460</title>
<polygon fill="none" stroke="black" points="310.52,-114 310.52,-212 459.46,-212 459.46,-114 310.52,-114"/>
<text text-anchor="middle" x="384.99" y="-194.7" font-family="Times,serif" font-size="14.00">Segment 3460</text>
</g>
<g id="clust14" class="cluster">
<title>cluster_segment_3668</title>
<polygon fill="none" stroke="black" points="310.52,-8 310.52,-106 459.46,-106 459.46,-8 310.52,-8"/>
<text text-anchor="middle" x="384.99" y="-88.7" font-family="Times,serif" font-size="14.00">Segment 3668</text>
</g>
<g id="clust15" class="cluster">
<title>cluster_segment_3880</title>
<polygon fill="none" stroke="black" points="176.94,-72 176.94,-149 290.52,-149 290.52,-72 176.94,-72"/>
<text text-anchor="middle" x="233.73" y="-131.7" font-family="Times,serif" font-size="14.00">Segment 3880</text>
</g>
<g id="clust16" class="cluster">
<title>cluster_segment_4085</title>
<polygon fill="none" stroke="black" points="8,-61 8,-159 156.94,-159 156.94,-61 8,-61"/>
<text text-anchor="middle" x="82.47" y="-141.7" font-family="Times,serif" font-size="14.00">Segment 4085</text>
</g>
<!-- command_GHenAmGbUs9LDLFqUgw9U8PYwRcj6n9MfyBtY7NJTPCT -->
<g id="node1" class="node">
<title>command_GHenAmGbUs9LDLFqUgw9U8PYwRcj6n9MfyBtY7NJTPCT</title>
<ellipse fill="lightblue" stroke="lightblue" cx="3012.93" cy="-245" rx="60.63" ry="28.99"/>
<text text-anchor="middle" x="3012.93" y="-248.2" font-family="Times,serif" font-size="14.00">GHenAmGb</text>
<text text-anchor="middle" x="3012.93" y="-231.7" font-family="Times,serif" font-size="14.00">(Init)</text>
</g>
<!-- command_FdRwR279p7LSMzPNkjkQ9n7t5gP3TN9dqA7ghJXeRkTJ -->
<g id="node2" class="node">
<title>command_FdRwR279p7LSMzPNkjkQ9n7t5gP3TN9dqA7ghJXeRkTJ</title>
<ellipse fill="none" stroke="black" cx="2849.83" cy="-245" rx="66.47" ry="28.99"/>
<text text-anchor="middle" x="2849.83" y="-248.2" font-family="Times,serif" font-size="14.00">FdRwR279</text>
<text text-anchor="middle" x="2849.83" y="-231.7" font-family="Times,serif" font-size="14.00">(SetLedColor)</text>
</g>
<!-- command_FdRwR279p7LSMzPNkjkQ9n7t5gP3TN9dqA7ghJXeRkTJ&#45;&gt;command_GHenAmGbUs9LDLFqUgw9U8PYwRcj6n9MfyBtY7NJTPCT -->
<g id="edge1" class="edge">
<title>command_FdRwR279p7LSMzPNkjkQ9n7t5gP3TN9dqA7ghJXeRkTJ&#45;&gt;command_GHenAmGbUs9LDLFqUgw9U8PYwRcj6n9MfyBtY7NJTPCT</title>
<path fill="none" stroke="black" d="M2916.35,-245C2924.35,-245 2932.54,-245 2940.62,-245"/>
<polygon fill="black" stroke="black" points="2940.4,-248.5 2950.4,-245 2940.4,-241.5 2940.4,-248.5"/>
</g>
<!-- command_FWwkuBKinvCE5eKb2pGSUs2zbFNdnS8YfC5bAQddCqsw -->
<g id="node3" class="node">
<title>command_FWwkuBKinvCE5eKb2pGSUs2zbFNdnS8YfC5bAQddCqsw</title>
<ellipse fill="none" stroke="black" cx="2680.89" cy="-245" rx="66.47" ry="28.99"/>
<text text-anchor="middle" x="2680.89" y="-248.2" font-family="Times,serif" font-size="14.00">FWwkuBKi</text>
<text text-anchor="middle" x="2680.89" y="-231.7" font-family="Times,serif" font-size="14.00">(SetLedColor)</text>
</g>
<!-- command_FWwkuBKinvCE5eKb2pGSUs2zbFNdnS8YfC5bAQddCqsw&#45;&gt;command_FdRwR279p7LSMzPNkjkQ9n7t5gP3TN9dqA7ghJXeRkTJ -->
<g id="edge2" class="edge">
<title>command_FWwkuBKinvCE5eKb2pGSUs2zbFNdnS8YfC5bAQddCqsw&#45;&gt;command_FdRwR279p7LSMzPNkjkQ9n7t5gP3TN9dqA7ghJXeRkTJ</title>
<path fill="none" stroke="black" d="M2747.39,-245C2755.34,-245 2763.51,-245 2771.61,-245"/>
<polygon fill="black" stroke="black" points="2771.45,-248.5 2781.45,-245 2771.45,-241.5 2771.45,-248.5"/>
</g>
<!-- command_EKWgqv8pGNAQBNHcBg1LNHFmum2SP5rTnGEXPXSC8zBV -->
<g id="node4" class="node">
<title>command_EKWgqv8pGNAQBNHcBg1LNHFmum2SP5rTnGEXPXSC8zBV</title>
<ellipse fill="none" stroke="black" cx="2511.95" cy="-245" rx="66.47" ry="28.99"/>
<text text-anchor="middle" x="2511.95" y="-248.2" font-family="Times,serif" font-size="14.00">EKWgqv8p</text>
<text text-anchor="middle" x="2511.95" y="-231.7" font-family="Times,serif" font-size="14.00">(SetLedColor)</text>
</g>
<!-- command_EKWgqv8pGNAQBNHcBg1LNHFmum2SP5rTnGEXPXSC8zBV&#45;&gt;command_FWwkuBKinvCE5eKb2pGSUs2zbFNdnS8YfC5bAQddCqsw -->
<g id="edge3" class="edge">
<title>command_EKWgqv8pGNAQBNHcBg1LNHFmum2SP5rTnGEXPXSC8zBV&#45;&gt;command_FWwkuBKinvCE5eKb2pGSUs2zbFNdnS8YfC5bAQddCqsw</title>
<path fill="none" stroke="black" d="M2578.45,-245C2586.4,-245 2594.57,-245 2602.67,-245"/>
<polygon fill="black" stroke="black" points="2602.52,-248.5 2612.52,-245 2602.52,-241.5 2602.52,-248.5"/>
</g>
<!-- command_G6NHTuFypE6R12ZatQGKRu5jSSn5RQhZNfHmGuPbuhrp -->
<g id="node5" class="node">
<title>command_G6NHTuFypE6R12ZatQGKRu5jSSn5RQhZNfHmGuPbuhrp</title>
<ellipse fill="none" stroke="black" cx="2343.02" cy="-245" rx="66.47" ry="28.99"/>
<text text-anchor="middle" x="2343.02" y="-248.2" font-family="Times,serif" font-size="14.00">G6NHTuFy</text>
<text text-anchor="middle" x="2343.02" y="-231.7" font-family="Times,serif" font-size="14.00">(SetLedColor)</text>
</g>
<!-- command_G6NHTuFypE6R12ZatQGKRu5jSSn5RQhZNfHmGuPbuhrp&#45;&gt;command_EKWgqv8pGNAQBNHcBg1LNHFmum2SP5rTnGEXPXSC8zBV -->
<g id="edge4" class="edge">
<title>command_G6NHTuFypE6R12ZatQGKRu5jSSn5RQhZNfHmGuPbuhrp&#45;&gt;command_EKWgqv8pGNAQBNHcBg1LNHFmum2SP5rTnGEXPXSC8zBV</title>
<path fill="none" stroke="black" d="M2409.52,-245C2417.46,-245 2425.64,-245 2433.73,-245"/>
<polygon fill="black" stroke="black" points="2433.58,-248.5 2443.58,-245 2433.58,-241.5 2433.58,-248.5"/>
</g>
<!-- command_GjRmpKU8ZAYE6jeZpGr1Y4nTD3gXMK22DEDWJqsKr8at -->
<g id="node6" class="node">
<title>command_GjRmpKU8ZAYE6jeZpGr1Y4nTD3gXMK22DEDWJqsKr8at</title>
<ellipse fill="none" stroke="black" cx="2343.02" cy="-139" rx="66.47" ry="28.99"/>
<text text-anchor="middle" x="2343.02" y="-142.2" font-family="Times,serif" font-size="14.00">GjRmpKU8</text>
<text text-anchor="middle" x="2343.02" y="-125.7" font-family="Times,serif" font-size="14.00">(SetLedColor)</text>
</g>
<!-- command_GjRmpKU8ZAYE6jeZpGr1Y4nTD3gXMK22DEDWJqsKr8at&#45;&gt;command_EKWgqv8pGNAQBNHcBg1LNHFmum2SP5rTnGEXPXSC8zBV -->
<g id="edge5" class="edge">
<title>command_GjRmpKU8ZAYE6jeZpGr1Y4nTD3gXMK22DEDWJqsKr8at&#45;&gt;command_EKWgqv8pGNAQBNHcBg1LNHFmum2SP5rTnGEXPXSC8zBV</title>
<path fill="none" stroke="black" d="M2381.48,-162.79C2405.78,-178.21 2437.63,-198.44 2463.66,-214.97"/>
<polygon fill="black" stroke="black" points="2461.73,-217.89 2472.05,-220.3 2465.48,-211.98 2461.73,-217.89"/>
</g>
<!-- command_86MM6fwYjEnAzBwssTuqdnL3q3kBE4TKGKKEC2AVUcYF -->
<g id="node7" class="node">
<title>command_86MM6fwYjEnAzBwssTuqdnL3q3kBE4TKGKKEC2AVUcYF</title>
<ellipse fill="lightgreen" stroke="lightgreen" cx="2182.03" cy="-192" rx="58.52" ry="18"/>
<text text-anchor="middle" x="2182.03" y="-186.95" font-family="Times,serif" font-size="14.00">86MM6fwY</text>
</g>
<!-- command_86MM6fwYjEnAzBwssTuqdnL3q3kBE4TKGKKEC2AVUcYF&#45;&gt;command_G6NHTuFypE6R12ZatQGKRu5jSSn5RQhZNfHmGuPbuhrp -->
<g id="edge6" class="edge">
<title>command_86MM6fwYjEnAzBwssTuqdnL3q3kBE4TKGKKEC2AVUcYF&#45;&gt;command_G6NHTuFypE6R12ZatQGKRu5jSSn5RQhZNfHmGuPbuhrp</title>
<path fill="none" stroke="black" d="M2222.74,-205.24C2239.58,-210.85 2259.63,-217.53 2278.43,-223.8"/>
<polygon fill="black" stroke="black" points="2277.3,-227.11 2287.89,-226.96 2279.51,-220.47 2277.3,-227.11"/>
</g>
<!-- command_86MM6fwYjEnAzBwssTuqdnL3q3kBE4TKGKKEC2AVUcYF&#45;&gt;command_GjRmpKU8ZAYE6jeZpGr1Y4nTD3gXMK22DEDWJqsKr8at -->
<g id="edge7" class="edge">
<title>command_86MM6fwYjEnAzBwssTuqdnL3q3kBE4TKGKKEC2AVUcYF&#45;&gt;command_GjRmpKU8ZAYE6jeZpGr1Y4nTD3gXMK22DEDWJqsKr8at</title>
<path fill="none" stroke="black" d="M2222.74,-178.76C2239.58,-173.15 2259.63,-166.47 2278.43,-160.2"/>
<polygon fill="black" stroke="black" points="2279.51,-163.53 2287.89,-157.04 2277.3,-156.89 2279.51,-163.53"/>
</g>
<!-- command_4Q7jhpwYRX9N9ge8f9oQhydjLeBKx4QgpGNbi5Zgvy14 -->
<g id="node8" class="node">
<title>command_4Q7jhpwYRX9N9ge8f9oQhydjLeBKx4QgpGNbi5Zgvy14</title>
<ellipse fill="none" stroke="black" cx="2021.05" cy="-192" rx="66.47" ry="28.99"/>
<text text-anchor="middle" x="2021.05" y="-195.2" font-family="Times,serif" font-size="14.00">4Q7jhpwY</text>
<text text-anchor="middle" x="2021.05" y="-178.7" font-family="Times,serif" font-size="14.00">(SetLedColor)</text>
</g>
<!-- command_4Q7jhpwYRX9N9ge8f9oQhydjLeBKx4QgpGNbi5Zgvy14&#45;&gt;command_86MM6fwYjEnAzBwssTuqdnL3q3kBE4TKGKKEC2AVUcYF -->
<g id="edge8" class="edge">
<title>command_4Q7jhpwYRX9N9ge8f9oQhydjLeBKx4QgpGNbi5Zgvy14&#45;&gt;command_86MM6fwYjEnAzBwssTuqdnL3q3kBE4TKGKKEC2AVUcYF</title>
<path fill="none" stroke="black" d="M2087.63,-192C2095.65,-192 2103.87,-192 2111.94,-192"/>
<polygon fill="black" stroke="black" points="2111.71,-195.5 2121.71,-192 2111.71,-188.5 2111.71,-195.5"/>
</g>
<!-- command_24YFC9xG2qygQJ3RLvFLau9ikuEpqae2bZz2TZL5symY -->
<g id="node9" class="node">
<title>command_24YFC9xG2qygQJ3RLvFLau9ikuEpqae2bZz2TZL5symY</title>
<ellipse fill="none" stroke="black" cx="1852.11" cy="-192" rx="66.47" ry="28.99"/>
<text text-anchor="middle" x="1852.11" y="-195.2" font-family="Times,serif" font-size="14.00">24YFC9xG</text>
<text text-anchor="middle" x="1852.11" y="-178.7" font-family="Times,serif" font-size="14.00">(SetLedColor)</text>
</g>
<!-- command_24YFC9xG2qygQJ3RLvFLau9ikuEpqae2bZz2TZL5symY&#45;&gt;command_4Q7jhpwYRX9N9ge8f9oQhydjLeBKx4QgpGNbi5Zgvy14 -->
<g id="edge9" class="edge">
<title>command_24YFC9xG2qygQJ3RLvFLau9ikuEpqae2bZz2TZL5symY&#45;&gt;command_4Q7jhpwYRX9N9ge8f9oQhydjLeBKx4QgpGNbi5Zgvy14</title>
<path fill="none" stroke="black" d="M1918.61,-192C1926.56,-192 1934.73,-192 1942.83,-192"/>
<polygon fill="black" stroke="black" points="1942.68,-195.5 1952.68,-192 1942.68,-188.5 1942.68,-195.5"/>
</g>
<!-- command_DUAVjfUN6TkgCXxsBCeo3bk3DNQRRkAW3e9knqjg3oBy -->
<g id="node10" class="node">
<title>command_DUAVjfUN6TkgCXxsBCeo3bk3DNQRRkAW3e9knqjg3oBy</title>
<ellipse fill="none" stroke="black" cx="1683.18" cy="-192" rx="66.47" ry="28.99"/>
<text text-anchor="middle" x="1683.18" y="-195.2" font-family="Times,serif" font-size="14.00">DUAVjfUN</text>
<text text-anchor="middle" x="1683.18" y="-178.7" font-family="Times,serif" font-size="14.00">(SetLedColor)</text>
</g>
<!-- command_DUAVjfUN6TkgCXxsBCeo3bk3DNQRRkAW3e9knqjg3oBy&#45;&gt;command_24YFC9xG2qygQJ3RLvFLau9ikuEpqae2bZz2TZL5symY -->
<g id="edge10" class="edge">
<title>command_DUAVjfUN6TkgCXxsBCeo3bk3DNQRRkAW3e9knqjg3oBy&#45;&gt;command_24YFC9xG2qygQJ3RLvFLau9ikuEpqae2bZz2TZL5symY</title>
<path fill="none" stroke="black" d="M1749.67,-192C1757.62,-192 1765.8,-192 1773.89,-192"/>
<polygon fill="black" stroke="black" points="1773.74,-195.5 1783.74,-192 1773.74,-188.5 1773.74,-195.5"/>
</g>
<!-- command_3nNhwXRdXtAcFsFER4XhpKYpKVvao6tiBFMe2QhrUsje -->
<g id="node11" class="node">
<title>command_3nNhwXRdXtAcFsFER4XhpKYpKVvao6tiBFMe2QhrUsje</title>
<ellipse fill="none" stroke="black" cx="1683.18" cy="-86" rx="66.47" ry="28.99"/>
<text text-anchor="middle" x="1683.18" y="-89.2" font-family="Times,serif" font-size="14.00">3nNhwXRd</text>
<text text-anchor="middle" x="1683.18" y="-72.7" font-family="Times,serif" font-size="14.00">(SetLedColor)</text>
</g>
<!-- command_3nNhwXRdXtAcFsFER4XhpKYpKVvao6tiBFMe2QhrUsje&#45;&gt;command_24YFC9xG2qygQJ3RLvFLau9ikuEpqae2bZz2TZL5symY -->
<g id="edge11" class="edge">
<title>command_3nNhwXRdXtAcFsFER4XhpKYpKVvao6tiBFMe2QhrUsje&#45;&gt;command_24YFC9xG2qygQJ3RLvFLau9ikuEpqae2bZz2TZL5symY</title>
<path fill="none" stroke="black" d="M1721.64,-109.79C1745.93,-125.21 1777.79,-145.44 1803.82,-161.97"/>
<polygon fill="black" stroke="black" points="1801.89,-164.89 1812.21,-167.3 1805.64,-158.98 1801.89,-164.89"/>
</g>
<!-- command_H4RPRB25HBW4sBbY3oii6YQNGE8j4k8hchVcD2fEwrWN -->
<g id="node12" class="node">
<title>command_H4RPRB25HBW4sBbY3oii6YQNGE8j4k8hchVcD2fEwrWN</title>
<ellipse fill="lightgreen" stroke="lightgreen" cx="1525.77" cy="-99" rx="54.93" ry="18"/>
<text text-anchor="middle" x="1525.77" y="-93.95" font-family="Times,serif" font-size="14.00">H4RPRB25</text>
</g>
<!-- command_H4RPRB25HBW4sBbY3oii6YQNGE8j4k8hchVcD2fEwrWN&#45;&gt;command_DUAVjfUN6TkgCXxsBCeo3bk3DNQRRkAW3e9knqjg3oBy -->
<g id="edge13" class="edge">
<title>command_H4RPRB25HBW4sBbY3oii6YQNGE8j4k8hchVcD2fEwrWN&#45;&gt;command_DUAVjfUN6TkgCXxsBCeo3bk3DNQRRkAW3e9knqjg3oBy</title>
<path fill="none" stroke="black" d="M1551.65,-115.3C1567.77,-125.74 1589.31,-139.45 1608.71,-151 1615.78,-155.21 1623.3,-159.56 1630.73,-163.78"/>
<polygon fill="black" stroke="black" points="1629,-166.82 1639.44,-168.68 1632.44,-160.72 1629,-166.82"/>
</g>
<!-- command_H4RPRB25HBW4sBbY3oii6YQNGE8j4k8hchVcD2fEwrWN&#45;&gt;command_3nNhwXRdXtAcFsFER4XhpKYpKVvao6tiBFMe2QhrUsje -->
<g id="edge12" class="edge">
<title>command_H4RPRB25HBW4sBbY3oii6YQNGE8j4k8hchVcD2fEwrWN&#45;&gt;command_3nNhwXRdXtAcFsFER4XhpKYpKVvao6tiBFMe2QhrUsje</title>
<path fill="none" stroke="black" d="M1579.39,-94.6C1587.99,-93.88 1597.06,-93.12 1606.09,-92.36"/>
<polygon fill="black" stroke="black" points="1606.31,-95.86 1615.98,-91.54 1605.72,-88.88 1606.31,-95.86"/>
</g>
<!-- command_FSDg6YRtq3ASUgd3e6pqSbhGx6NgHGx6VnVMUcqc7XXn -->
<g id="node13" class="node">
<title>command_FSDg6YRtq3ASUgd3e6pqSbhGx6NgHGx6VnVMUcqc7XXn</title>
<ellipse fill="none" stroke="black" cx="1368.37" cy="-152" rx="66.47" ry="28.99"/>
<text text-anchor="middle" x="1368.37" y="-155.2" font-family="Times,serif" font-size="14.00">FSDg6YRt</text>
<text text-anchor="middle" x="1368.37" y="-138.7" font-family="Times,serif" font-size="14.00">(SetLedColor)</text>
</g>
<!-- command_FSDg6YRtq3ASUgd3e6pqSbhGx6NgHGx6VnVMUcqc7XXn&#45;&gt;command_H4RPRB25HBW4sBbY3oii6YQNGE8j4k8hchVcD2fEwrWN -->
<g id="edge14" class="edge">
<title>command_FSDg6YRtq3ASUgd3e6pqSbhGx6NgHGx6VnVMUcqc7XXn&#45;&gt;command_H4RPRB25HBW4sBbY3oii6YQNGE8j4k8hchVcD2fEwrWN</title>
<path fill="none" stroke="black" d="M1421.55,-134.2C1439.22,-128.18 1458.87,-121.48 1476.25,-115.55"/>
<polygon fill="black" stroke="black" points="1476.97,-119 1485.3,-112.46 1474.71,-112.38 1476.97,-119"/>
</g>
<!-- command_29cfmN4GxWPJkAX4bf8bLU2rZagQjiGcsaAmi9PkVsKq -->
<g id="node14" class="node">
<title>command_29cfmN4GxWPJkAX4bf8bLU2rZagQjiGcsaAmi9PkVsKq</title>
<ellipse fill="none" stroke="black" cx="1368.37" cy="-46" rx="66.47" ry="28.99"/>
<text text-anchor="middle" x="1368.37" y="-49.2" font-family="Times,serif" font-size="14.00">29cfmN4G</text>
<text text-anchor="middle" x="1368.37" y="-32.7" font-family="Times,serif" font-size="14.00">(SetLedColor)</text>
</g>
<!-- command_29cfmN4GxWPJkAX4bf8bLU2rZagQjiGcsaAmi9PkVsKq&#45;&gt;command_H4RPRB25HBW4sBbY3oii6YQNGE8j4k8hchVcD2fEwrWN -->
<g id="edge15" class="edge">
<title>command_29cfmN4GxWPJkAX4bf8bLU2rZagQjiGcsaAmi9PkVsKq&#45;&gt;command_H4RPRB25HBW4sBbY3oii6YQNGE8j4k8hchVcD2fEwrWN</title>
<path fill="none" stroke="black" d="M1421.55,-63.8C1439.22,-69.82 1458.87,-76.52 1476.25,-82.45"/>
<polygon fill="black" stroke="black" points="1474.71,-85.62 1485.3,-85.54 1476.97,-79 1474.71,-85.62"/>
</g>
<!-- command_4idTMGryasst4FyvyNHxcZHGWsYb3DPTa21jvtFGDCU2 -->
<g id="node15" class="node">
<title>command_4idTMGryasst4FyvyNHxcZHGWsYb3DPTa21jvtFGDCU2</title>
<ellipse fill="lightgreen" stroke="lightgreen" cx="1214.55" cy="-72" rx="51.35" ry="18"/>
<text text-anchor="middle" x="1214.55" y="-66.95" font-family="Times,serif" font-size="14.00">4idTMGry</text>
</g>
<!-- command_4idTMGryasst4FyvyNHxcZHGWsYb3DPTa21jvtFGDCU2&#45;&gt;command_FSDg6YRtq3ASUgd3e6pqSbhGx6NgHGx6VnVMUcqc7XXn -->
<g id="edge17" class="edge">
<title>command_4idTMGryasst4FyvyNHxcZHGWsYb3DPTa21jvtFGDCU2&#45;&gt;command_FSDg6YRtq3ASUgd3e6pqSbhGx6NgHGx6VnVMUcqc7XXn</title>
<path fill="none" stroke="black" d="M1244.11,-87.05C1264.03,-97.54 1291.18,-111.85 1314.94,-124.37"/>
<polygon fill="black" stroke="black" points="1313.06,-127.34 1323.54,-128.9 1316.33,-121.15 1313.06,-127.34"/>
</g>
<!-- command_4idTMGryasst4FyvyNHxcZHGWsYb3DPTa21jvtFGDCU2&#45;&gt;command_29cfmN4GxWPJkAX4bf8bLU2rZagQjiGcsaAmi9PkVsKq -->
<g id="edge16" class="edge">
<title>command_4idTMGryasst4FyvyNHxcZHGWsYb3DPTa21jvtFGDCU2&#45;&gt;command_29cfmN4GxWPJkAX4bf8bLU2rZagQjiGcsaAmi9PkVsKq</title>
<path fill="none" stroke="black" d="M1261.1,-64.2C1271.65,-62.39 1283.13,-60.43 1294.52,-58.48"/>
<polygon fill="black" stroke="black" points="1295.09,-61.93 1304.35,-56.79 1293.91,-55.03 1295.09,-61.93"/>
</g>
<!-- command_HyG6R7iBooJQJbZomaqS7taZHube2YgW8FkQ1VoDYZpx -->
<g id="node16" class="node">
<title>command_HyG6R7iBooJQJbZomaqS7taZHube2YgW8FkQ1VoDYZpx</title>
<ellipse fill="none" stroke="black" cx="1060.73" cy="-72" rx="66.47" ry="28.99"/>
<text text-anchor="middle" x="1060.73" y="-75.2" font-family="Times,serif" font-size="14.00">HyG6R7iB</text>
<text text-anchor="middle" x="1060.73" y="-58.7" font-family="Times,serif" font-size="14.00">(SetLedColor)</text>
</g>
<!-- command_HyG6R7iBooJQJbZomaqS7taZHube2YgW8FkQ1VoDYZpx&#45;&gt;command_4idTMGryasst4FyvyNHxcZHGWsYb3DPTa21jvtFGDCU2 -->
<g id="edge18" class="edge">
<title>command_HyG6R7iBooJQJbZomaqS7taZHube2YgW8FkQ1VoDYZpx&#45;&gt;command_4idTMGryasst4FyvyNHxcZHGWsYb3DPTa21jvtFGDCU2</title>
<path fill="none" stroke="black" d="M1127.44,-72C1135.41,-72 1143.53,-72 1151.45,-72"/>
<polygon fill="black" stroke="black" points="1151.34,-75.5 1161.34,-72 1151.34,-68.5 1151.34,-75.5"/>
</g>
<!-- command_FYpDGR9v3swy1fHN1D5rNGiTJjrv4ikuoTx1Lkmxo6se -->
<g id="node17" class="node">
<title>command_FYpDGR9v3swy1fHN1D5rNGiTJjrv4ikuoTx1Lkmxo6se</title>
<ellipse fill="none" stroke="black" cx="891.8" cy="-72" rx="66.47" ry="28.99"/>
<text text-anchor="middle" x="891.8" y="-75.2" font-family="Times,serif" font-size="14.00">FYpDGR9v</text>
<text text-anchor="middle" x="891.8" y="-58.7" font-family="Times,serif" font-size="14.00">(SetLedColor)</text>
</g>
<!-- command_FYpDGR9v3swy1fHN1D5rNGiTJjrv4ikuoTx1Lkmxo6se&#45;&gt;command_HyG6R7iBooJQJbZomaqS7taZHube2YgW8FkQ1VoDYZpx -->
<g id="edge19" class="edge">
<title>command_FYpDGR9v3swy1fHN1D5rNGiTJjrv4ikuoTx1Lkmxo6se&#45;&gt;command_HyG6R7iBooJQJbZomaqS7taZHube2YgW8FkQ1VoDYZpx</title>
<path fill="none" stroke="black" d="M958.3,-72C966.24,-72 974.42,-72 982.51,-72"/>
<polygon fill="black" stroke="black" points="982.36,-75.5 992.36,-72 982.36,-68.5 982.36,-75.5"/>
</g>
<!-- command_7hBByK7nBMeCwpwtDLGfP4Q2wQAF88PYfyDfdD6edc9S -->
<g id="node18" class="node">
<title>command_7hBByK7nBMeCwpwtDLGfP4Q2wQAF88PYfyDfdD6edc9S</title>
<ellipse fill="none" stroke="black" cx="722.86" cy="-72" rx="66.47" ry="28.99"/>
<text text-anchor="middle" x="722.86" y="-75.2" font-family="Times,serif" font-size="14.00">7hBByK7n</text>
<text text-anchor="middle" x="722.86" y="-58.7" font-family="Times,serif" font-size="14.00">(SetLedColor)</text>
</g>
<!-- command_7hBByK7nBMeCwpwtDLGfP4Q2wQAF88PYfyDfdD6edc9S&#45;&gt;command_FYpDGR9v3swy1fHN1D5rNGiTJjrv4ikuoTx1Lkmxo6se -->
<g id="edge20" class="edge">
<title>command_7hBByK7nBMeCwpwtDLGfP4Q2wQAF88PYfyDfdD6edc9S&#45;&gt;command_FYpDGR9v3swy1fHN1D5rNGiTJjrv4ikuoTx1Lkmxo6se</title>
<path fill="none" stroke="black" d="M789.36,-72C797.31,-72 805.48,-72 813.58,-72"/>
<polygon fill="black" stroke="black" points="813.43,-75.5 823.43,-72 813.43,-68.5 813.43,-75.5"/>
</g>
<!-- command_951xTwjusDjMS6HMSG8ajeAazgCAWHhdvTZ2eWhNTyfN -->
<g id="node19" class="node">
<title>command_951xTwjusDjMS6HMSG8ajeAazgCAWHhdvTZ2eWhNTyfN</title>
<ellipse fill="none" stroke="black" cx="553.92" cy="-72" rx="66.47" ry="28.99"/>
<text text-anchor="middle" x="553.92" y="-75.2" font-family="Times,serif" font-size="14.00">951xTwju</text>
<text text-anchor="middle" x="553.92" y="-58.7" font-family="Times,serif" font-size="14.00">(SetLedColor)</text>
</g>
<!-- command_951xTwjusDjMS6HMSG8ajeAazgCAWHhdvTZ2eWhNTyfN&#45;&gt;command_7hBByK7nBMeCwpwtDLGfP4Q2wQAF88PYfyDfdD6edc9S -->
<g id="edge21" class="edge">
<title>command_951xTwjusDjMS6HMSG8ajeAazgCAWHhdvTZ2eWhNTyfN&#45;&gt;command_7hBByK7nBMeCwpwtDLGfP4Q2wQAF88PYfyDfdD6edc9S</title>
<path fill="none" stroke="black" d="M620.42,-72C628.37,-72 636.55,-72 644.64,-72"/>
<polygon fill="black" stroke="black" points="644.49,-75.5 654.49,-72 644.49,-68.5 644.49,-75.5"/>
</g>
<!-- command_3Q835W8SaujQ1N1ow3mk3NaiCW3kyqrEAgMuTXc82P5e -->
<g id="node20" class="node">
<title>command_3Q835W8SaujQ1N1ow3mk3NaiCW3kyqrEAgMuTXc82P5e</title>
<ellipse fill="none" stroke="black" cx="384.99" cy="-151" rx="66.47" ry="28.99"/>
<text text-anchor="middle" x="384.99" y="-154.2" font-family="Times,serif" font-size="14.00">3Q835W8S</text>
<text text-anchor="middle" x="384.99" y="-137.7" font-family="Times,serif" font-size="14.00">(SetLedColor)</text>
</g>
<!-- command_3Q835W8SaujQ1N1ow3mk3NaiCW3kyqrEAgMuTXc82P5e&#45;&gt;command_951xTwjusDjMS6HMSG8ajeAazgCAWHhdvTZ2eWhNTyfN -->
<g id="edge22" class="edge">
<title>command_3Q835W8SaujQ1N1ow3mk3NaiCW3kyqrEAgMuTXc82P5e&#45;&gt;command_951xTwjusDjMS6HMSG8ajeAazgCAWHhdvTZ2eWhNTyfN</title>
<path fill="none" stroke="black" d="M430.72,-129.83C451.23,-120.13 475.73,-108.53 497.4,-98.28"/>
<polygon fill="black" stroke="black" points="498.87,-101.45 506.41,-94.01 495.87,-95.13 498.87,-101.45"/>
</g>
<!-- command_8cstUM3eqdMbhm3DzptFUL3sn7gv7StzHA5BvNteCvrL -->
<g id="node21" class="node">
<title>command_8cstUM3eqdMbhm3DzptFUL3sn7gv7StzHA5BvNteCvrL</title>
<ellipse fill="none" stroke="black" cx="384.99" cy="-45" rx="66.47" ry="28.99"/>
<text text-anchor="middle" x="384.99" y="-48.2" font-family="Times,serif" font-size="14.00">8cstUM3e</text>
<text text-anchor="middle" x="384.99" y="-31.7" font-family="Times,serif" font-size="14.00">(SetLedColor)</text>
</g>
<!-- command_8cstUM3eqdMbhm3DzptFUL3sn7gv7StzHA5BvNteCvrL&#45;&gt;command_951xTwjusDjMS6HMSG8ajeAazgCAWHhdvTZ2eWhNTyfN -->
<g id="edge23" class="edge">
<title>command_8cstUM3eqdMbhm3DzptFUL3sn7gv7StzHA5BvNteCvrL&#45;&gt;command_951xTwjusDjMS6HMSG8ajeAazgCAWHhdvTZ2eWhNTyfN</title>
<path fill="none" stroke="black" d="M447.68,-54.98C458.22,-56.68 469.27,-58.47 480.07,-60.22"/>
<polygon fill="black" stroke="black" points="479.29,-63.64 489.72,-61.78 480.41,-56.73 479.29,-63.64"/>
</g>
<!-- command_AAJRci2spAWagytyMtPmS8E2PqSW3LcEhk25ubWbB3xt -->
<g id="node22" class="node">
<title>command_AAJRci2spAWagytyMtPmS8E2PqSW3LcEhk25ubWbB3xt</title>
<ellipse fill="lightgreen" stroke="lightgreen" cx="233.73" cy="-98" rx="48.79" ry="18"/>
<text text-anchor="middle" x="233.73" y="-92.95" font-family="Times,serif" font-size="14.00">AAJRci2s</text>
</g>
<!-- command_AAJRci2spAWagytyMtPmS8E2PqSW3LcEhk25ubWbB3xt&#45;&gt;command_3Q835W8SaujQ1N1ow3mk3NaiCW3kyqrEAgMuTXc82P5e -->
<g id="edge24" class="edge">
<title>command_AAJRci2spAWagytyMtPmS8E2PqSW3LcEhk25ubWbB3xt&#45;&gt;command_3Q835W8SaujQ1N1ow3mk3NaiCW3kyqrEAgMuTXc82P5e</title>
<path fill="none" stroke="black" d="M269.72,-110.43C285.28,-115.95 304.08,-122.62 321.89,-128.95"/>
<polygon fill="black" stroke="black" points="320.5,-132.17 331.1,-132.22 322.84,-125.57 320.5,-132.17"/>
</g>
<!-- command_AAJRci2spAWagytyMtPmS8E2PqSW3LcEhk25ubWbB3xt&#45;&gt;command_8cstUM3eqdMbhm3DzptFUL3sn7gv7StzHA5BvNteCvrL -->
<g id="edge25" class="edge">
<title>command_AAJRci2spAWagytyMtPmS8E2PqSW3LcEhk25ubWbB3xt&#45;&gt;command_8cstUM3eqdMbhm3DzptFUL3sn7gv7StzHA5BvNteCvrL</title>
<path fill="none" stroke="black" d="M269.72,-85.57C285.28,-80.05 304.08,-73.38 321.89,-67.05"/>
<polygon fill="black" stroke="black" points="322.84,-70.43 331.1,-63.78 320.5,-63.83 322.84,-70.43"/>
</g>
<!-- command_BPbj5vtVYzZdWtX3Yibr4FKmwDPbLrt4V3Zvtc1F3y27 -->
<g id="node23" class="node">
<title>command_BPbj5vtVYzZdWtX3Yibr4FKmwDPbLrt4V3Zvtc1F3y27</title>
<ellipse fill="none" stroke="black" cx="82.47" cy="-98" rx="66.47" ry="28.99"/>
<text text-anchor="middle" x="82.47" y="-101.2" font-family="Times,serif" font-size="14.00">BPbj5vtV</text>
<text text-anchor="middle" x="82.47" y="-84.7" font-family="Times,serif" font-size="14.00">(SetLedColor)</text>
</g>
<!-- command_BPbj5vtVYzZdWtX3Yibr4FKmwDPbLrt4V3Zvtc1F3y27&#45;&gt;command_AAJRci2spAWagytyMtPmS8E2PqSW3LcEhk25ubWbB3xt -->
<g id="edge26" class="edge">
<title>command_BPbj5vtVYzZdWtX3Yibr4FKmwDPbLrt4V3Zvtc1F3y27&#45;&gt;command_AAJRci2spAWagytyMtPmS8E2PqSW3LcEhk25ubWbB3xt</title>
<path fill="none" stroke="black" d="M149.37,-98C157.35,-98 165.46,-98 173.33,-98"/>
<polygon fill="black" stroke="black" points="173.14,-101.5 183.14,-98 173.14,-94.5 173.14,-101.5"/>
</g>
</g>
</svg>
